STARTFONT 2.1
FONT -FontForge-Racing Sans One-Book-R-Normal-SansOne--29-280-75-75-P-162-ISO10646-1
SIZE 28 75 75
FONTBOUNDINGBOX 44 38 -6 -9
COMMENT "Generated by fontforge, http://fontforge.sourceforge.net"
COMMENT "Copyright (c) 2012, Pablo Impallari (www.impallari.com|impallari@gmail.com) and Rodrigo Fuenzalida (www.rfuenzalida.com), with Reserved Font Name Racing Sans."
STARTPROPERTIES 39
FOUNDRY "FontForge"
FAMILY_NAME "Racing Sans One"
WEIGHT_NAME "Book"
SLANT "R"
SETWIDTH_NAME "Normal"
ADD_STYLE_NAME "SansOne"
PIXEL_SIZE 29
POINT_SIZE 280
RESOLUTION_X 75
RESOLUTION_Y 75
SPACING "P"
AVERAGE_WIDTH 162
CHARSET_REGISTRY "ISO10646"
CHARSET_ENCODING "1"
FONTNAME_REGISTRY ""
CHARSET_COLLECTIONS "ISO8859-2 ISO8859-9 ISO8859-4 ISO10646-1"
FONT_NAME "RacingSansOne-Regular"
FACE_NAME "Racing Sans One"
COPYRIGHT "Copyright (c) 2012, Pablo Impallari (www.impallari.com|impallari@gmail.com) and Rodrigo Fuenzalida (www.rfuenzalida.com), with Reserved Font Name Racing Sans."
FONT_VERSION "1.001; ttfautohint (v0.8) -G 200 -r 50"
FONT_ASCENT 23
FONT_DESCENT 6
UNDERLINE_POSITION -3
UNDERLINE_THICKNESS 2
X_HEIGHT 12
CAP_HEIGHT 18
RAW_ASCENT 800
RAW_DESCENT 200
NORM_SPACE 6
RELATIVE_WEIGHT 40
RELATIVE_SETWIDTH 50
SUPERSCRIPT_X 0
SUPERSCRIPT_Y 13
SUPERSCRIPT_SIZE 18
SUBSCRIPT_X 0
SUBSCRIPT_Y 4
SUBSCRIPT_SIZE 18
AVG_LOWERCASE_WIDTH 161
AVG_UPPERCASE_WIDTH 179
ENDPROPERTIES
CHARS 471
STARTCHAR space
ENCODING 32
SWIDTH 191 0
DWIDTH 6 0
BBX 1 1 0 0
BITMAP
00
ENDCHAR
STARTCHAR exclam
ENCODING 33
SWIDTH 294 0
DWIDTH 9 0
BBX 9 20 1 0
BITMAP
1F80
1F00
3F00
3F00
3F00
3E00
3E00
3E00
3C00
3C00
7C00
7C00
7800
7800
0000
7000
F800
F800
F800
F000
ENDCHAR
STARTCHAR quotedbl
ENCODING 34
SWIDTH 446 0
DWIDTH 13 0
BBX 13 8 2 12
BITMAP
3CF8
7CF0
78F0
78E0
79E0
71E0
71C0
F1C0
ENDCHAR
STARTCHAR numbersign
ENCODING 35
SWIDTH 672 0
DWIDTH 19 0
BBX 20 18 0 1
BITMAP
01C380
018380
038300
038300
3FFFF0
3FFFF0
3FFFE0
070600
070E00
070E00
060E00
7FFFC0
7FFFC0
FFFFC0
0C1C00
1C1C00
1C1800
1C3800
ENDCHAR
STARTCHAR dollar
ENCODING 36
SWIDTH 596 0
DWIDTH 17 0
BBX 15 24 1 -3
BITMAP
0070
0070
01FC
0FFE
1F06
3E00
7E00
7E00
7F00
7FE0
7FFC
3FFC
1FFE
07FE
00FE
007E
007E
007C
60FC
FFF8
3FC0
0700
0E00
0E00
ENDCHAR
STARTCHAR percent
ENCODING 37
SWIDTH 724 0
DWIDTH 21 0
BBX 17 19 2 0
BITMAP
3E0700
770E00
770E00
E71C00
E73800
EF3800
7E7000
007000
00E000
01C000
01C000
038F00
07BF80
073B80
0E7B80
0E7380
1C7380
383700
783E00
ENDCHAR
STARTCHAR ampersand
ENCODING 38
SWIDTH 705 0
DWIDTH 20 0
BBX 19 19 0 0
BITMAP
007E00
01FF00
03E380
03E380
07F380
07F380
03FF00
03FC00
1FFCC0
3FFDC0
7CFF80
FCFF80
FC7F00
FC7F00
FE3F80
FF3F80
7FFFC0
7FFFC0
1F9FE0
ENDCHAR
STARTCHAR quotesingle
ENCODING 39
SWIDTH 214 0
DWIDTH 6 0
BBX 6 8 2 12
BITMAP
3C
7C
78
78
70
70
60
E0
ENDCHAR
STARTCHAR parenleft
ENCODING 40
SWIDTH 308 0
DWIDTH 9 0
BBX 10 23 1 -2
BITMAP
0080
03C0
0780
0F00
0E00
1E00
3C00
3C00
7C00
7800
F800
F800
F000
F000
F000
F000
F000
F000
7000
7800
3800
1C00
0C00
ENDCHAR
STARTCHAR parenright
ENCODING 41
SWIDTH 308 0
DWIDTH 9 0
BBX 10 23 -1 -2
BITMAP
0C00
0E00
0700
0780
0780
0380
03C0
03C0
03C0
07C0
07C0
0780
0780
0780
0F00
0F00
1E00
1E00
3C00
3800
7000
E000
C000
ENDCHAR
STARTCHAR asterisk
ENCODING 42
SWIDTH 273 0
DWIDTH 8 0
BBX 6 6 3 14
BITMAP
10
7C
FC
7C
A8
20
ENDCHAR
STARTCHAR plus
ENCODING 43
SWIDTH 459 0
DWIDTH 13 0
BBX 12 13 1 3
BITMAP
0380
0300
0700
0700
0700
FFF0
FFF0
FFF0
0E00
0E00
0E00
1C00
1C00
ENDCHAR
STARTCHAR comma
ENCODING 44
SWIDTH 275 0
DWIDTH 8 0
BBX 7 9 -1 -4
BITMAP
3C
7E
7E
7E
3C
3C
38
70
E0
ENDCHAR
STARTCHAR hyphen
ENCODING 45
SWIDTH 415 0
DWIDTH 12 0
BBX 10 3 1 5
BITMAP
FFC0
FF80
FF80
ENDCHAR
STARTCHAR period
ENCODING 46
SWIDTH 274 0
DWIDTH 8 0
BBX 6 5 0 0
BITMAP
78
FC
FC
FC
78
ENDCHAR
STARTCHAR slash
ENCODING 47
SWIDTH 358 0
DWIDTH 10 0
BBX 13 19 -1 0
BITMAP
0038
0070
0070
00E0
00E0
01C0
01C0
0380
0380
0700
0700
0E00
0C00
1C00
1800
3800
7000
7000
E000
ENDCHAR
STARTCHAR zero
ENCODING 48
SWIDTH 668 0
DWIDTH 19 0
BBX 18 19 1 0
BITMAP
01FC00
07FF00
0FDF80
1F8F80
3F0FC0
3F0FC0
7F0FC0
7E1FC0
7E1FC0
FE1FC0
FE1FC0
FE1F80
FC3F80
FC3F80
FC3F00
7C7E00
7E7E00
3FF800
0FE000
ENDCHAR
STARTCHAR one
ENCODING 49
SWIDTH 397 0
DWIDTH 12 0
BBX 10 19 2 0
BITMAP
07C0
0FC0
3FC0
FF80
FF80
1F80
3F80
3F80
3F00
3F00
3F00
7F00
7F00
7E00
7E00
7E00
FE00
FC00
FC00
ENDCHAR
STARTCHAR two
ENCODING 50
SWIDTH 593 0
DWIDTH 17 0
BBX 17 19 0 0
BITMAP
01F800
07FE00
1F9F00
1F1F80
3F1F80
3F1F80
3E1F80
001F80
003F00
003F00
007E00
00FC00
01F800
03E000
0FC000
3FFE00
FFFE00
FFFE00
FFFE00
ENDCHAR
STARTCHAR three
ENCODING 51
SWIDTH 604 0
DWIDTH 18 0
BBX 17 19 0 0
BITMAP
01FC00
0FFF00
1F9F80
1F1F80
1F1F80
3E1F80
001F00
003E00
00FC00
01F800
007E00
003F00
7C3F00
7C3F00
7C7F00
FC7F00
FCFE00
7FF800
1FE000
ENDCHAR
STARTCHAR four
ENCODING 52
SWIDTH 607 0
DWIDTH 18 0
BBX 17 19 0 0
BITMAP
007F80
00FF80
01FF00
01FF00
03BF00
077F00
0F7E00
1E7E00
1C7E00
387E00
78FE00
70FC00
FFFF80
FFFF80
00FC00
01FC00
01F800
01F800
01F800
ENDCHAR
STARTCHAR five
ENCODING 53
SWIDTH 563 0
DWIDTH 16 0
BBX 16 19 0 0
BITMAP
0FFF
0FFF
1FFE
1FFE
1C00
1C00
1DF0
3FFC
3EFE
3C7E
007E
007F
787E
787E
F87E
F87C
FCF8
7FF0
1FC0
ENDCHAR
STARTCHAR six
ENCODING 54
SWIDTH 616 0
DWIDTH 18 0
BBX 16 19 1 0
BITMAP
01FE
07FF
0F9F
1F9F
3F1F
3F00
7E00
7E7C
7FFE
FFFF
FE3F
FE3F
FC3F
FC7F
FC7F
7C7E
7CFC
3FF8
0FE0
ENDCHAR
STARTCHAR seven
ENCODING 55
SWIDTH 531 0
DWIDTH 15 0
BBX 15 19 2 0
BITMAP
7FFE
FFFE
FFFE
FFFC
00F0
01E0
03E0
07C0
0F80
0F80
1F80
1F00
3F00
3F00
3F00
7E00
7E00
7E00
7E00
ENDCHAR
STARTCHAR eight
ENCODING 56
SWIDTH 620 0
DWIDTH 18 0
BBX 16 19 1 0
BITMAP
03F8
0FFE
1F3F
3F3F
3E3F
7E3F
3E3F
3E7E
1FFC
3FFC
7E7E
FC7E
FC7F
FC7F
FC7E
FC7E
FCFC
7FF8
1FE0
ENDCHAR
STARTCHAR nine
ENCODING 57
SWIDTH 619 0
DWIDTH 18 0
BBX 16 19 1 0
BITMAP
03F0
1FFC
3F3E
3F1F
7E1F
7E3F
7E3F
7E3F
7E7F
7FFF
3FBF
1F3F
007F
007E
787E
F8FC
FDF8
FFF0
7F80
ENDCHAR
STARTCHAR colon
ENCODING 58
SWIDTH 282 0
DWIDTH 8 0
BBX 7 12 0 0
BITMAP
1C
3E
3E
3E
1C
00
00
78
FC
FC
F8
70
ENDCHAR
STARTCHAR semicolon
ENCODING 59
SWIDTH 285 0
DWIDTH 8 0
BBX 8 16 -1 -4
BITMAP
0E
1F
1F
1F
0E
00
00
3C
7E
7E
3E
1C
1C
38
F0
40
ENDCHAR
STARTCHAR less
ENCODING 60
SWIDTH 397 0
DWIDTH 12 0
BBX 11 12 1 3
BITMAP
01E0
0780
0F00
1E00
3C00
7000
F000
7800
3C00
1C00
0E00
0F00
ENDCHAR
STARTCHAR equal
ENCODING 61
SWIDTH 413 0
DWIDTH 12 0
BBX 10 7 1 5
BITMAP
7FC0
7FC0
0000
0000
0000
FF80
FF80
ENDCHAR
STARTCHAR greater
ENCODING 62
SWIDTH 396 0
DWIDTH 11 0
BBX 10 12 1 3
BITMAP
3C00
1C00
0E00
0F00
0780
03C0
03C0
0700
0E00
3C00
7800
F000
ENDCHAR
STARTCHAR question
ENCODING 63
SWIDTH 525 0
DWIDTH 15 0
BBX 14 20 2 0
BITMAP
0FE0
3FF8
7CF8
7CFC
F8FC
F8FC
00FC
01F8
03F0
0FE0
0F80
1F00
1F00
1F00
0000
1E00
3E00
3F00
3E00
1C00
ENDCHAR
STARTCHAR at
ENCODING 64
SWIDTH 745 0
DWIDTH 22 0
BBX 20 19 1 -3
BITMAP
01FC00
07FF00
1F0780
3C01C0
3000E0
71CEE0
E3FC60
E7BC70
E79C70
C73C70
C73C60
C73C60
E73CE0
E7DFC0
E38F00
700000
382000
1FE000
0FE000
ENDCHAR
STARTCHAR A
ENCODING 65
SWIDTH 602 0
DWIDTH 17 0
BBX 17 19 -1 0
BITMAP
00FE00
01FE00
01FE00
01FE00
03FF00
037F00
077F00
067F00
0E7F00
0E7F00
1C3F00
1C3F00
1FFF00
3FFF00
303F80
703F80
703F80
E03F80
E03F80
ENDCHAR
STARTCHAR B
ENCODING 66
SWIDTH 622 0
DWIDTH 18 0
BBX 18 19 0 0
BITMAP
0FFE00
0FFF80
1FCF80
1F8FC0
1F8FC0
1F8FC0
1F8F80
3F9F00
3FFE00
3FFF00
3F3F80
3F1F80
7F1F80
7E1F80
7E1F80
7E3F00
7E7F00
FFFE00
FFF000
ENDCHAR
STARTCHAR C
ENCODING 67
SWIDTH 639 0
DWIDTH 19 0
BBX 18 19 1 0
BITMAP
01FE00
07FFC0
0FCFC0
1F8FC0
3F0FC0
7F0F80
7F0F80
7E0000
FE0000
FE0000
FE0000
FE0080
FE1F00
FC1F00
FC3F00
7E3F00
7E7F00
3FFE00
0FF000
ENDCHAR
STARTCHAR D
ENCODING 68
SWIDTH 662 0
DWIDTH 19 0
BBX 19 19 0 0
BITMAP
0FFE00
0FFF80
1FCFC0
1F87C0
1F87E0
1F87E0
1F87E0
3F8FE0
3F0FE0
3F0FE0
3F0FE0
3F0FC0
7F1FC0
7E1FC0
7E1F80
7E3F00
7E7E00
FFFC00
FFF000
ENDCHAR
STARTCHAR E
ENCODING 69
SWIDTH 503 0
DWIDTH 15 0
BBX 16 19 0 0
BITMAP
0FFF
0FFF
1FC0
1F80
1F80
1F80
1F80
3F80
3FF8
3FF8
3F00
3F00
7F00
7E00
7E00
7E00
7E00
FFF8
FFF0
ENDCHAR
STARTCHAR F
ENCODING 70
SWIDTH 491 0
DWIDTH 14 0
BBX 16 19 0 0
BITMAP
0FFF
0FFF
1FC0
1F80
1F80
1F80
1F80
3F80
3FFC
3FF8
3F00
3F00
7F00
7E00
7E00
7E00
7E00
FE00
FC00
ENDCHAR
STARTCHAR G
ENCODING 71
SWIDTH 642 0
DWIDTH 19 0
BBX 18 19 1 0
BITMAP
01FE00
07FFC0
0FCFC0
1F8FC0
3F0F80
7F0F80
7F0F80
7E0000
FE0000
FE0000
FE7F80
FE7F80
FE1F00
FE1F00
FE1F00
7E3F00
7E7F00
3FFE00
0F8E00
ENDCHAR
STARTCHAR H
ENCODING 72
SWIDTH 666 0
DWIDTH 19 0
BBX 20 19 0 0
BITMAP
0FC3F0
0FC7F0
1FC7F0
1FC7E0
1F87E0
1F87E0
1F8FE0
3F8FE0
3F8FC0
3FFFC0
3FFFC0
3F1FC0
7F1F80
7E1F80
7E1F80
7E1F80
7E3F80
FE3F00
FC3F00
ENDCHAR
STARTCHAR I
ENCODING 73
SWIDTH 326 0
DWIDTH 9 0
BBX 10 19 0 0
BITMAP
0FC0
0FC0
1FC0
1F80
1F80
1F80
1F80
3F80
3F00
3F00
3F00
3F00
7F00
7E00
7E00
7E00
7E00
FE00
FC00
ENDCHAR
STARTCHAR J
ENCODING 74
SWIDTH 590 0
DWIDTH 17 0
BBX 19 19 -1 0
BITMAP
0007E0
000FE0
000FC0
000FC0
000FC0
000FC0
001FC0
001F80
001F80
001F80
003F80
003F80
7E3F00
7E3F00
7C3F00
7C7E00
FE7E00
3FFC00
0FE000
ENDCHAR
STARTCHAR K
ENCODING 75
SWIDTH 608 0
DWIDTH 18 0
BBX 19 19 0 0
BITMAP
0FC1E0
0FC3C0
1FC380
1FC700
1F8E00
1F9C00
1FB800
3FF000
3FF800
3FF800
3FFC00
3FFC00
7F7C00
7E7E00
7E7E00
7E7F00
7E3F00
FE3F00
FC3F80
ENDCHAR
STARTCHAR L
ENCODING 76
SWIDTH 482 0
DWIDTH 14 0
BBX 13 19 0 0
BITMAP
0FC0
0FC0
1FC0
1F80
1F80
1F80
1F80
3F80
3F00
3F00
3F00
3F00
7F00
7E00
7E00
7E00
7E08
FFF0
FFF0
ENDCHAR
STARTCHAR M
ENCODING 77
SWIDTH 844 0
DWIDTH 24 0
BBX 25 19 0 0
BITMAP
0FE03F80
0FE07F80
1FF0FF80
1FF0FF80
1FF1FF00
1FF1FF00
1FF3FF00
3BF3FF00
3BF77E00
3BF77E00
33FE7E00
33FEFE00
73FCFE00
73FCFC00
73F8FC00
63F8FC00
63F1FC00
E1E1FC00
E1E1F800
ENDCHAR
STARTCHAR N
ENCODING 78
SWIDTH 644 0
DWIDTH 19 0
BBX 19 19 0 0
BITMAP
0FE060
0FE0E0
1FE0E0
1FF0E0
1FF0E0
1FF0C0
1BF1C0
3BF1C0
3BF9C0
3BF980
31F980
31FB80
71FF80
71FF80
70FF00
60FF00
60FF00
E0FF00
E07F00
ENDCHAR
STARTCHAR O
ENCODING 79
SWIDTH 685 0
DWIDTH 20 0
BBX 19 19 1 0
BITMAP
01FC00
07FF00
0FCF80
1F8FC0
3F0FC0
7F0FC0
7F0FE0
7E0FE0
FE0FE0
FE0FC0
FE1FC0
FE1FC0
FC1FC0
FC1F80
FC3F80
7C3F00
7E7E00
3FFC00
0FF000
ENDCHAR
STARTCHAR P
ENCODING 80
SWIDTH 600 0
DWIDTH 17 0
BBX 18 19 0 0
BITMAP
0FFE00
0FFF80
1FCFC0
1F8FC0
1F8FC0
1F8FC0
1F8FC0
3F8FC0
3F0F80
3F1F80
3F3F00
3FFE00
7FF800
7E0000
7E0000
7E0000
7E0000
FE0000
FC0000
ENDCHAR
STARTCHAR Q
ENCODING 81
SWIDTH 685 0
DWIDTH 20 0
BBX 19 24 1 -5
BITMAP
01FC00
07FF00
0FCF80
1F8FC0
3F0FC0
7F0FC0
7F0FE0
7E0FE0
FE0FE0
FE0FC0
FE1FC0
FE1FC0
FC1FC0
FC1F80
FC3F80
7C3F00
7E7E00
3FFC00
0FF000
03F000
01FE00
01FC00
00F000
006000
ENDCHAR
STARTCHAR R
ENCODING 82
SWIDTH 633 0
DWIDTH 18 0
BBX 18 19 0 0
BITMAP
0FFE00
0FFF80
1FCFC0
1F8FC0
1F8FC0
1F8FC0
1F8FC0
3F8F80
3F1F80
3FFE00
3FFC00
3F7C00
7F7E00
7E7E00
7E7F00
7E3F00
7E3F00
FE3F80
FC1F80
ENDCHAR
STARTCHAR S
ENCODING 83
SWIDTH 587 0
DWIDTH 17 0
BBX 17 19 0 0
BITMAP
00FE00
07FF80
0F9F80
1F1F80
3F0F80
3F1F00
3F8000
3FF000
3FFC00
1FFE00
0FFF00
01FF00
007F00
7C3F00
FC3F00
FC3E00
FE7E00
FFFC00
3FE000
ENDCHAR
STARTCHAR T
ENCODING 84
SWIDTH 555 0
DWIDTH 16 0
BBX 16 19 2 0
BITMAP
7FFF
FFFF
07E0
0FE0
0FE0
0FC0
0FC0
0FC0
1FC0
1F80
1F80
1F80
1F80
3F80
3F00
3F00
3F00
3F00
7F00
ENDCHAR
STARTCHAR U
ENCODING 85
SWIDTH 630 0
DWIDTH 18 0
BBX 18 19 1 0
BITMAP
1F81C0
3F81C0
3F81C0
3F8180
3F0180
3F0380
7F0380
7F0380
7F0300
7E0300
FE0700
FE0700
FE0700
FC0600
FC0E00
FE0C00
FFFC00
7FF800
1FC000
ENDCHAR
STARTCHAR V
ENCODING 86
SWIDTH 581 0
DWIDTH 17 0
BBX 17 19 2 0
BITMAP
FE0380
FE0700
7E0700
7E0E00
7E0E00
7E1C00
7E1C00
7F1C00
7F3800
7F3800
7F7000
7F7000
7FE000
7FE000
7FC000
7FC000
7F8000
7F8000
7F8000
ENDCHAR
STARTCHAR W
ENCODING 87
SWIDTH 944 0
DWIDTH 27 0
BBX 27 19 2 0
BITMAP
FE0FC0E0
FE0FE1E0
FE0FE1C0
FE1FE1C0
7F1FE380
7F1FE380
7F3FE380
7F3FE700
7F3FE700
7F77EF00
7F77EE00
7FF7EE00
7FE7FC00
7FE7FC00
7FC7FC00
7FC7F800
7F87F800
7F87F800
7F87F000
ENDCHAR
STARTCHAR X
ENCODING 88
SWIDTH 602 0
DWIDTH 17 0
BBX 20 19 -1 0
BITMAP
1FC0F0
1FC0E0
0FE1C0
0FE380
0FF780
07F700
07FE00
03FC00
03F800
03FC00
01FC00
03FC00
07FE00
0FFE00
0E7F00
1C7F00
387F80
783F80
F03FC0
ENDCHAR
STARTCHAR Y
ENCODING 89
SWIDTH 570 0
DWIDTH 17 0
BBX 17 19 2 0
BITMAP
FE0780
7F0700
7F0E00
7F0C00
7F1C00
3FB800
3FB800
3FF000
3FE000
1FE000
1FC000
1F8000
1F8000
1F8000
3F8000
3F8000
3F0000
3F0000
3F0000
ENDCHAR
STARTCHAR Z
ENCODING 90
SWIDTH 553 0
DWIDTH 16 0
BBX 18 19 -1 0
BITMAP
1FFFC0
1FFFC0
003FC0
007F80
007F00
00FF00
01FE00
01FC00
03FC00
07F800
07F000
0FF000
1FE000
1FC000
3FC000
7F8000
7F8000
7FFF00
FFFF00
ENDCHAR
STARTCHAR bracketleft
ENCODING 91
SWIDTH 295 0
DWIDTH 9 0
BBX 11 23 0 -2
BITMAP
0FE0
0FC0
0E00
0E00
0E00
1C00
1C00
1C00
1C00
1C00
3800
3800
3800
3800
7800
7000
7000
7000
7000
F000
E000
FC00
FC00
ENDCHAR
STARTCHAR backslash
ENCODING 92
SWIDTH 605 0
DWIDTH 18 0
BBX 12 19 3 0
BITMAP
E000
E000
7000
3000
3800
1800
1C00
0C00
0E00
0600
0700
0300
0380
01C0
01C0
00E0
00E0
0070
0070
ENDCHAR
STARTCHAR bracketright
ENCODING 93
SWIDTH 295 0
DWIDTH 9 0
BBX 11 23 -1 -2
BITMAP
0FE0
0FC0
01C0
01C0
01C0
03C0
0380
0380
0380
0380
0780
0700
0700
0700
0700
0E00
0E00
0E00
0E00
0E00
1C00
FC00
FC00
ENDCHAR
STARTCHAR asciicircum
ENCODING 94
SWIDTH 438 0
DWIDTH 13 0
BBX 11 7 2 12
BITMAP
0F80
1F80
3D80
39C0
70C0
60C0
C060
ENDCHAR
STARTCHAR underscore
ENCODING 95
SWIDTH 571 0
DWIDTH 17 0
BBX 14 3 -1 -3
BITMAP
7FFC
FFFC
FFFC
ENDCHAR
STARTCHAR grave
ENCODING 96
SWIDTH 304 0
DWIDTH 9 0
BBX 8 5 1 14
BITMAP
F8
3C
1C
0E
07
ENDCHAR
STARTCHAR a
ENCODING 97
SWIDTH 552 0
DWIDTH 16 0
BBX 15 13 0 0
BITMAP
0FF0
3FFC
3C7E
3C7E
007E
1FFE
7E7E
FCFC
F8FC
F8FC
FFFC
FEFC
7C78
ENDCHAR
STARTCHAR b
ENCODING 98
SWIDTH 585 0
DWIDTH 17 0
BBX 16 20 0 0
BITMAP
0FC0
0F80
1F80
1F80
1F80
1F80
3F00
3F3E
3F7F
3FFF
3F3F
7E3F
7E3F
7E3F
7E3F
7E7E
FC7E
FFFE
FBFC
F8F8
ENDCHAR
STARTCHAR c
ENCODING 99
SWIDTH 521 0
DWIDTH 15 0
BBX 15 13 0 0
BITMAP
03F8
1FFE
3F3E
7E3C
7E3C
7E00
FC00
FC00
FC7C
7C78
7CF8
3FF8
0FF0
ENDCHAR
STARTCHAR d
ENCODING 100
SWIDTH 577 0
DWIDTH 17 0
BBX 18 20 0 0
BITMAP
000FC0
000FC0
000FC0
001F80
001F80
001F80
001F80
0F9F00
1FFF00
3FFF00
7E3F00
7E3F00
7E7E00
FC7E00
FC7E00
FC7E00
FCFE00
FFFC00
7F7C00
3C7C00
ENDCHAR
STARTCHAR e
ENCODING 101
SWIDTH 547 0
DWIDTH 16 0
BBX 15 13 0 0
BITMAP
03F8
1FFE
3F3E
7E3E
7E3E
7E3E
FFFE
FC00
FC00
7C7C
7CFC
3FFC
0FE0
ENDCHAR
STARTCHAR f
ENCODING 102
SWIDTH 404 0
DWIDTH 12 0
BBX 15 20 1 0
BITMAP
01FC
07FE
0FFC
0FC0
1F80
1F80
1F80
FFF0
FFE0
3F00
3F00
3F00
7E00
7E00
7E00
7E00
7E00
FC00
FC00
FC00
ENDCHAR
STARTCHAR g
ENCODING 103
SWIDTH 578 0
DWIDTH 17 0
BBX 17 18 0 -5
BITMAP
0F9F80
1FDF00
3FFF00
7E3F00
7E3F00
7E7E00
FC7E00
FC7E00
FC7E00
FCFE00
FFFC00
7FFC00
3CFC00
00FC00
00F800
01F000
7FE000
FF8000
ENDCHAR
STARTCHAR h
ENCODING 104
SWIDTH 586 0
DWIDTH 17 0
BBX 16 20 0 0
BITMAP
0FC0
0F80
1F80
1F80
1F80
1F80
3F00
3F1E
3F7F
3FFF
3F3F
7E3F
7E3F
7E3F
7E7E
7E7E
FC7E
FC7E
FC7E
FCFC
ENDCHAR
STARTCHAR i
ENCODING 105
SWIDTH 293 0
DWIDTH 9 0
BBX 9 19 0 0
BITMAP
0F00
1F80
1F80
1F80
0F00
0000
3F00
3F00
3F00
3F00
7E00
7E00
7E00
7E00
7E00
FC00
FC00
FC00
FC00
ENDCHAR
STARTCHAR j
ENCODING 106
SWIDTH 294 0
DWIDTH 9 0
BBX 12 24 -3 -5
BITMAP
01E0
03F0
03F0
03F0
01E0
0000
07E0
07E0
07E0
07E0
0FC0
0FC0
0FC0
0FC0
0FC0
1F80
1F80
1F80
1F80
1F00
3F00
3E00
FC00
F000
ENDCHAR
STARTCHAR k
ENCODING 107
SWIDTH 599 0
DWIDTH 17 0
BBX 18 20 0 0
BITMAP
0FC000
0F8000
1F8000
1F8000
1F8000
1F8000
3F0000
3F07C0
3F0F00
3F1E00
3F3C00
7EF800
7FF000
7FF800
7FF800
7EFC00
FCFC00
FC7E00
FC7E00
FC3F00
ENDCHAR
STARTCHAR l
ENCODING 108
SWIDTH 293 0
DWIDTH 9 0
BBX 10 20 0 0
BITMAP
0FC0
0F80
1F80
1F80
1F80
1F80
3F00
3F00
3F00
3F00
3F00
7E00
7E00
7E00
7E00
7E00
FC00
FC00
FC00
FC00
ENDCHAR
STARTCHAR m
ENCODING 109
SWIDTH 861 0
DWIDTH 25 0
BBX 24 13 0 0
BITMAP
3E3E3E
3EFFFF
3FFFFF
3F3F3F
7E3E3F
7E3E3F
7E3E3F
7E7E3E
7E7E7E
FC7C7E
FC7C7E
FC7C7E
FCFCFC
ENDCHAR
STARTCHAR n
ENCODING 110
SWIDTH 586 0
DWIDTH 17 0
BBX 16 13 0 0
BITMAP
3E3E
3EFF
3FFF
3F3F
7E3F
7E3F
7E3F
7E7E
7E7E
FC7E
FC7E
FC7E
FCFC
ENDCHAR
STARTCHAR o
ENCODING 111
SWIDTH 575 0
DWIDTH 17 0
BBX 16 13 0 0
BITMAP
07F8
1FFC
3F3E
7E3F
7E3F
7E3F
FC3F
FC7F
FC7E
7C7E
7CFC
3FF8
0FE0
ENDCHAR
STARTCHAR p
ENCODING 112
SWIDTH 584 0
DWIDTH 17 0
BBX 17 18 -1 -5
BITMAP
1F1F00
1F7F80
1FFF80
1F9F80
3F1F80
3F1F80
3F1F80
3F1F80
3F3F00
7F3F00
7FFF00
7EFE00
7E7C00
7E0000
FC0000
FC0000
FC0000
FC0000
ENDCHAR
STARTCHAR q
ENCODING 113
SWIDTH 577 0
DWIDTH 17 0
BBX 17 18 0 -5
BITMAP
0F9F80
1FDF00
3FFF00
7E3F00
7E3F00
7E3E00
FC7E00
FC7E00
FC7E00
FC7E00
FCFC00
7FFC00
3EFC00
00FC00
00FC00
01F800
01F800
01F800
ENDCHAR
STARTCHAR r
ENCODING 114
SWIDTH 483 0
DWIDTH 14 0
BBX 14 13 0 0
BITMAP
3E3C
3EFC
3FFC
3FFC
7E3C
7E38
7E38
7E00
7E00
FC00
FC00
FC00
FC00
ENDCHAR
STARTCHAR s
ENCODING 115
SWIDTH 487 0
DWIDTH 14 0
BBX 14 13 -1 0
BITMAP
07F8
1FFC
3F3C
3F3C
3F00
3FE0
1FF8
0FFC
01FC
78FC
78FC
FFF8
3FE0
ENDCHAR
STARTCHAR t
ENCODING 116
SWIDTH 392 0
DWIDTH 11 0
BBX 11 17 1 0
BITMAP
0380
0780
0F80
1F80
FFE0
FFE0
3F00
3F00
3F00
7E00
7E00
7E00
7E00
7E00
7E00
7F80
3F00
ENDCHAR
STARTCHAR u
ENCODING 117
SWIDTH 585 0
DWIDTH 17 0
BBX 17 13 0 0
BITMAP
3F1F80
3F3F00
3F3F00
7E3F00
7E3F00
7E3F00
7E7E00
7E7E00
FC7E00
FC7E00
FFFE00
7F7C00
3C7C00
ENDCHAR
STARTCHAR v
ENCODING 118
SWIDTH 516 0
DWIDTH 15 0
BBX 15 13 1 0
BITMAP
FC1E
FC1C
FE38
7E38
7E70
7E70
7E60
7EE0
7EC0
3FC0
3F80
3F80
3F00
ENDCHAR
STARTCHAR w
ENCODING 119
SWIDTH 831 0
DWIDTH 24 0
BBX 24 13 1 0
BITMAP
FC3F0F
FC3F0E
FC3F0E
FE7F9C
7E7F9C
7EFF98
7EFFB8
7EDFB0
7FDFF0
7FDFF0
3F8FE0
3F8FE0
3F0FC0
ENDCHAR
STARTCHAR x
ENCODING 120
SWIDTH 511 0
DWIDTH 15 0
BBX 17 13 -2 0
BITMAP
1F8780
0FC700
0FCE00
07FC00
07F800
03F000
03F000
03F800
07F800
0EFC00
1CFC00
387E00
F07F00
ENDCHAR
STARTCHAR y
ENCODING 121
SWIDTH 517 0
DWIDTH 15 0
BBX 18 18 -2 -5
BITMAP
1F83C0
1F8380
1FC700
0FC700
0FCE00
0FCE00
0FDC00
0FDC00
0FF800
0FF800
07F000
07F000
07E000
07E000
07C000
0F8000
FF0000
FC0000
ENDCHAR
STARTCHAR z
ENCODING 122
SWIDTH 478 0
DWIDTH 14 0
BBX 15 13 -1 0
BITMAP
1FFE
3FFE
00FC
01F8
03F0
07F0
0FE0
1FC0
3F80
7F00
7E00
FFF8
FFF8
ENDCHAR
STARTCHAR braceleft
ENCODING 123
SWIDTH 314 0
DWIDTH 9 0
BBX 10 23 1 -2
BITMAP
03C0
07C0
0E00
0E00
1E00
1C00
1C00
1C00
1C00
3800
F800
F000
F000
7800
7000
7000
7000
7000
7000
E000
E000
FC00
7C00
ENDCHAR
STARTCHAR bar
ENCODING 124
SWIDTH 221 0
DWIDTH 6 0
BBX 8 25 -1 -5
BITMAP
07
07
07
0F
0E
0E
0E
0E
1E
1C
1C
1C
1C
3C
38
38
38
38
70
70
70
70
70
E0
E0
ENDCHAR
STARTCHAR braceright
ENCODING 125
SWIDTH 314 0
DWIDTH 9 0
BBX 10 23 -1 -2
BITMAP
0F80
0FC0
03C0
03C0
0380
0380
0380
0380
0780
0780
07C0
03C0
07C0
0700
0E00
0E00
0E00
0E00
1C00
1C00
1C00
F800
F000
ENDCHAR
STARTCHAR asciitilde
ENCODING 126
SWIDTH 462 0
DWIDTH 13 0
BBX 12 4 1 5
BITMAP
3C30
7FE0
FFC0
8780
ENDCHAR
STARTCHAR uni00A0
ENCODING 160
SWIDTH 191 0
DWIDTH 6 0
BBX 1 1 0 0
BITMAP
00
ENDCHAR
STARTCHAR exclamdown
ENCODING 161
SWIDTH 296 0
DWIDTH 9 0
BBX 9 20 -1 -5
BITMAP
0F00
0F80
1F80
1F80
0F00
0000
1F00
1E00
1E00
1E00
3E00
3E00
3E00
7E00
7C00
7C00
7C00
FC00
FC00
FC00
ENDCHAR
STARTCHAR cent
ENCODING 162
SWIDTH 537 0
DWIDTH 16 0
BBX 15 19 1 0
BITMAP
00F0
00E0
00E0
07F8
1FFE
3F3C
7E3C
7E3C
FC00
FC00
FC00
FC7C
FC78
7CF8
3FF8
0FF0
0700
0700
0F00
ENDCHAR
STARTCHAR sterling
ENCODING 163
SWIDTH 621 0
DWIDTH 18 0
BBX 16 19 1 0
BITMAP
01FC
07FF
0FFF
1F81
1F00
1F00
3F00
1F00
FFE0
FFE0
1F00
1F00
1E00
1C07
3F86
7FFE
FFFE
7FFC
40F8
ENDCHAR
STARTCHAR currency
ENCODING 164
SWIDTH 604 0
DWIDTH 18 0
BBX 18 16 0 2
BITMAP
040080
0CF980
1FFFC0
0FFF80
0F0F00
0E0700
1C0700
1C0700
180700
380600
1C0E00
1E1C00
3FFE00
FFFF00
73EE00
200400
ENDCHAR
STARTCHAR yen
ENCODING 165
SWIDTH 616 0
DWIDTH 18 0
BBX 18 19 1 0
BITMAP
3F81C0
3F8380
1FC380
1FC700
1FC700
1FCE00
0FEC00
0FFC00
0FF800
0FF800
3FFE00
7FFE00
07E000
0FE000
7FFC00
FFFC00
0FC000
1FC000
1FC000
ENDCHAR
STARTCHAR brokenbar
ENCODING 166
SWIDTH 223 0
DWIDTH 6 0
BBX 8 25 -1 -5
BITMAP
07
07
07
07
0E
0E
0E
0E
0E
1C
1C
00
00
00
38
38
38
38
70
70
70
70
70
E0
E0
ENDCHAR
STARTCHAR section
ENCODING 167
SWIDTH 544 0
DWIDTH 16 0
BBX 17 23 -1 -4
BITMAP
00FE00
03FF80
07E300
07C000
07C000
07F000
07FC00
07FE00
07FF00
1FFF00
3C1F00
3C0F00
3E0F00
3F9E00
3FFC00
3FF800
0FF800
03F800
01F800
01F800
41F800
FFF000
3FC000
ENDCHAR
STARTCHAR dieresis
ENCODING 168
SWIDTH 417 0
DWIDTH 12 0
BBX 10 5 1 14
BITMAP
71C0
F3C0
F3C0
F3C0
E180
ENDCHAR
STARTCHAR copyright
ENCODING 169
SWIDTH 755 0
DWIDTH 22 0
BBX 20 19 1 0
BITMAP
00FC00
07FF00
0F03C0
1C00E0
38FC60
71FE70
63CE30
67CE30
C78E30
C78030
C78030
C79E30
679C70
63FC60
71F8C0
3801C0
1E0F00
0FFE00
03F800
ENDCHAR
STARTCHAR ordfeminine
ENCODING 170
SWIDTH 393 0
DWIDTH 11 0
BBX 10 11 2 8
BITMAP
3F00
3B80
03C0
3F80
7380
7780
7F80
7380
0000
0000
FF00
ENDCHAR
STARTCHAR guillemotleft
ENCODING 171
SWIDTH 590 0
DWIDTH 17 0
BBX 17 13 0 0
BITMAP
038780
070F00
0F0E00
1E1E00
3C3C00
787800
F0F000
787800
787800
3C3800
3C3C00
1E1C00
1E1E00
ENDCHAR
STARTCHAR logicalnot
ENCODING 172
SWIDTH 593 0
DWIDTH 17 0
BBX 15 7 1 1
BITMAP
FFFE
FFFC
FFFC
001C
001C
003C
0038
ENDCHAR
STARTCHAR uni00AD
ENCODING 173
SWIDTH 415 0
DWIDTH 12 0
BBX 10 3 1 5
BITMAP
FFC0
FF80
FF80
ENDCHAR
STARTCHAR registered
ENCODING 174
SWIDTH 755 0
DWIDTH 22 0
BBX 20 19 1 0
BITMAP
00FC00
07FF00
0F03C0
1C00E0
39FC60
71EE70
61CE30
63CE30
C3FC30
C3F830
C3BC30
C3BC30
679C70
679E60
7000C0
3801C0
1C0700
0FFE00
03F800
ENDCHAR
STARTCHAR macron
ENCODING 175
SWIDTH 426 0
DWIDTH 12 0
BBX 11 2 1 16
BITMAP
FFE0
FFC0
ENDCHAR
STARTCHAR degree
ENCODING 176
SWIDTH 348 0
DWIDTH 10 0
BBX 9 8 2 11
BITMAP
1E00
7F00
6380
E180
C180
6300
7F00
3C00
ENDCHAR
STARTCHAR plusminus
ENCODING 177
SWIDTH 492 0
DWIDTH 14 0
BBX 14 18 0 0
BITMAP
01C0
01C0
01C0
01C0
01C0
3FFC
3FFC
3FF8
0380
0380
0700
0700
0700
0000
0000
FFF0
FFF0
FFF0
ENDCHAR
STARTCHAR twosuperior
ENCODING 178
SWIDTH 287 0
DWIDTH 8 0
BBX 7 8 2 11
BITMAP
3C
6E
EE
0E
1C
38
FE
FE
ENDCHAR
STARTCHAR threesuperior
ENCODING 179
SWIDTH 282 0
DWIDTH 8 0
BBX 7 7 2 12
BITMAP
7E
66
8E
18
CE
CE
FC
ENDCHAR
STARTCHAR acute
ENCODING 180
SWIDTH 317 0
DWIDTH 9 0
BBX 7 5 1 14
BITMAP
3E
3C
78
E0
C0
ENDCHAR
STARTCHAR mu
ENCODING 181
SWIDTH 588 0
DWIDTH 17 0
BBX 18 18 -1 -5
BITMAP
1F8FC0
1F8FC0
1F8F80
1F9F80
1F1F80
3F1F80
3F1F80
3F1F00
3F3F00
3F3F00
7FFF00
7FFF00
7BBE00
780000
F80000
F80000
F80000
F80000
ENDCHAR
STARTCHAR paragraph
ENCODING 182
SWIDTH 615 0
DWIDTH 18 0
BBX 17 24 2 -5
BITMAP
0FFF80
3FFF80
7FCE00
7F8E00
FF8C00
FF8C00
FF9C00
FF9C00
FF1C00
FF1800
7F3800
3F3800
073800
063000
0E3000
0E7000
0E7000
0E7000
0C6000
1CE000
1CE000
1CE000
18E000
39C000
ENDCHAR
STARTCHAR periodcentered
ENCODING 183
SWIDTH 273 0
DWIDTH 8 0
BBX 6 5 1 7
BITMAP
38
7C
FC
FC
78
ENDCHAR
STARTCHAR cedilla
ENCODING 184
SWIDTH 244 0
DWIDTH 7 0
BBX 6 7 1 -6
BITMAP
60
60
FC
FC
1C
9C
F8
ENDCHAR
STARTCHAR onesuperior
ENCODING 185
SWIDTH 184 0
DWIDTH 5 0
BBX 5 8 2 11
BITMAP
38
F8
F0
70
70
70
70
E0
ENDCHAR
STARTCHAR ordmasculine
ENCODING 186
SWIDTH 400 0
DWIDTH 12 0
BBX 10 11 2 8
BITMAP
1F00
3F80
7BC0
73C0
73C0
7380
7F80
3E00
0000
FF00
FF00
ENDCHAR
STARTCHAR guillemotright
ENCODING 187
SWIDTH 588 0
DWIDTH 17 0
BBX 17 13 -1 0
BITMAP
1C3C00
1E1E00
0E1E00
0F0F00
070F00
078780
07C780
078F00
0F0F00
1E1E00
3C3C00
387800
F0F000
ENDCHAR
STARTCHAR onequarter
ENCODING 188
SWIDTH 648 0
DWIDTH 19 0
BBX 15 19 2 0
BITMAP
181C
7818
F838
3870
7070
70E0
71C0
71C0
0380
0380
0700
0E00
0E1E
1C2E
3C7C
38DC
70FE
701C
E038
ENDCHAR
STARTCHAR onehalf
ENCODING 189
SWIDTH 675 0
DWIDTH 20 0
BBX 16 19 2 0
BITMAP
181C
7818
F838
3870
7070
70E0
71C0
71C0
0380
0380
0700
0E3E
0E77
1C67
3C07
380E
701C
70FE
E0FE
ENDCHAR
STARTCHAR threequarters
ENCODING 190
SWIDTH 722 0
DWIDTH 21 0
BBX 17 19 2 0
BITMAP
3E0780
770700
060E00
1C1C00
EE1C00
EE3800
FC3800
007000
00E000
00E000
01C000
03C780
038780
070B80
071F80
0E3700
1C3F80
1C0700
380700
ENDCHAR
STARTCHAR questiondown
ENCODING 191
SWIDTH 521 0
DWIDTH 15 0
BBX 14 20 -1 -5
BITMAP
00E0
01F0
01F0
01F0
01E0
0000
01E0
03E0
03E0
03C0
1FC0
3F00
7E00
7C00
FC7C
FC7C
FC78
7CF8
7FF0
1FC0
ENDCHAR
STARTCHAR Agrave
ENCODING 192
SWIDTH 602 0
DWIDTH 17 0
BBX 17 25 -1 0
BITMAP
07C000
01E000
00F000
007000
001800
000000
00FE00
01FE00
01FE00
01FE00
03FF00
037F00
077F00
067F00
0E7F00
0E7F00
1C3F00
1C3F00
1FFF00
3FFF00
303F80
703F80
703F80
E03F80
E03F80
ENDCHAR
STARTCHAR Aacute
ENCODING 193
SWIDTH 602 0
DWIDTH 17 0
BBX 18 25 -1 0
BITMAP
0007C0
000F80
001E00
001C00
003800
000000
00FE00
01FE00
01FE00
01FE00
03FF00
037F00
077F00
067F00
0E7F00
0E7F00
1C3F00
1C3F00
1FFF00
3FFF00
303F80
703F80
703F80
E03F80
E03F80
ENDCHAR
STARTCHAR Acircumflex
ENCODING 194
SWIDTH 602 0
DWIDTH 17 0
BBX 17 25 -1 0
BITMAP
003E00
007E00
00F700
01C300
038180
000000
00FE00
01FE00
01FE00
01FE00
03FF00
037F00
077F00
067F00
0E7F00
0E7F00
1C3F00
1C3F00
1FFF00
3FFF00
303F80
703F80
703F80
E03F80
E03F80
ENDCHAR
STARTCHAR Atilde
ENCODING 195
SWIDTH 602 0
DWIDTH 17 0
BBX 19 25 -1 0
BITMAP
007860
00FFC0
01FFC0
010F80
000000
000000
00FE00
01FE00
01FE00
01FE00
03FF00
037F00
077F00
067F00
0E7F00
0E7F00
1C3F00
1C3F00
1FFF00
3FFF00
303F80
703F80
703F80
E03F80
E03F80
ENDCHAR
STARTCHAR Adieresis
ENCODING 196
SWIDTH 602 0
DWIDTH 17 0
BBX 17 25 -1 0
BITMAP
01C700
01E780
03E780
01E780
01C700
000000
00FE00
01FE00
01FE00
01FE00
03FF00
037F00
077F00
067F00
0E7F00
0E7F00
1C3F00
1C3F00
1FFF00
3FFF00
303F80
703F80
703F80
E03F80
E03F80
ENDCHAR
STARTCHAR Aring
ENCODING 197
SWIDTH 602 0
DWIDTH 17 0
BBX 17 25 -1 0
BITMAP
003C00
007C00
006600
007C00
003800
000000
00FE00
01FE00
01FE00
01FE00
03FF00
037F00
077F00
067F00
0E7F00
0E7F00
1C3F00
1C3F00
1FFF00
3FFF00
303F80
703F80
703F80
E03F80
E03F80
ENDCHAR
STARTCHAR AE
ENCODING 198
SWIDTH 814 0
DWIDTH 24 0
BBX 27 19 -2 0
BITMAP
0003FFE0
0007FFE0
000FF800
001FF000
001BF000
0033F000
0073F000
0067F000
00C7FF80
01C7FF00
0387E000
03FFE000
07FFE000
0E0FC000
1C0FC000
180FC000
381FC000
701FFF00
E01FFE00
ENDCHAR
STARTCHAR Ccedilla
ENCODING 199
SWIDTH 639 0
DWIDTH 19 0
BBX 18 25 1 -6
BITMAP
01FE00
07FFC0
0FCFC0
1F8FC0
3F0FC0
7F0F80
7F0F80
7E0000
FE0000
FE0000
FE0000
FE0080
FE1F00
FC1F00
FC3F00
7E3F00
7E7F00
3FFE00
0FF000
038000
032000
03F000
007000
027000
03E000
ENDCHAR
STARTCHAR Egrave
ENCODING 200
SWIDTH 503 0
DWIDTH 15 0
BBX 16 25 0 0
BITMAP
0F80
07C0
01C0
00E0
0070
0000
0FFF
0FFF
1FC0
1F80
1F80
1F80
1F80
3F80
3FF8
3FF8
3F00
3F00
7F00
7E00
7E00
7E00
7E00
FFF8
FFF0
ENDCHAR
STARTCHAR Eacute
ENCODING 201
SWIDTH 503 0
DWIDTH 15 0
BBX 16 25 0 0
BITMAP
001F
001E
003C
0078
0060
0000
0FFF
0FFF
1FC0
1F80
1F80
1F80
1F80
3F80
3FF8
3FF8
3F00
3F00
7F00
7E00
7E00
7E00
7E00
FFF8
FFF0
ENDCHAR
STARTCHAR Ecircumflex
ENCODING 202
SWIDTH 503 0
DWIDTH 15 0
BBX 16 25 0 0
BITMAP
007C
00FC
01EE
0386
0703
0000
0FFF
0FFF
1FC0
1F80
1F80
1F80
1F80
3F80
3FF8
3FF8
3F00
3F00
7F00
7E00
7E00
7E00
7E00
FFF8
FFF0
ENDCHAR
STARTCHAR Edieresis
ENCODING 203
SWIDTH 503 0
DWIDTH 15 0
BBX 16 25 0 0
BITMAP
038E
079E
079F
079E
030E
0000
0FFF
0FFF
1FC0
1F80
1F80
1F80
1F80
3F80
3FF8
3FF8
3F00
3F00
7F00
7E00
7E00
7E00
7E00
FFF8
FFF0
ENDCHAR
STARTCHAR Igrave
ENCODING 204
SWIDTH 326 0
DWIDTH 9 0
BBX 10 25 0 0
BITMAP
7C00
3C00
1E00
0700
0380
0000
0FC0
0FC0
1FC0
1F80
1F80
1F80
1F80
3F80
3F00
3F00
3F00
3F00
7F00
7E00
7E00
7E00
7E00
FE00
FC00
ENDCHAR
STARTCHAR Iacute
ENCODING 205
SWIDTH 326 0
DWIDTH 9 0
BBX 13 25 0 0
BITMAP
00F8
00F0
01E0
0380
0300
0000
0FC0
0FC0
1FC0
1F80
1F80
1F80
1F80
3F80
3F00
3F00
3F00
3F00
7F00
7E00
7E00
7E00
7E00
FE00
FC00
ENDCHAR
STARTCHAR Icircumflex
ENCODING 206
SWIDTH 326 0
DWIDTH 9 0
BBX 13 25 0 0
BITMAP
03C0
07E0
0E70
1C30
3018
0000
0FC0
0FC0
1FC0
1F80
1F80
1F80
1F80
3F80
3F00
3F00
3F00
3F00
7F00
7E00
7E00
7E00
7E00
FE00
FC00
ENDCHAR
STARTCHAR Idieresis
ENCODING 207
SWIDTH 326 0
DWIDTH 9 0
BBX 13 25 0 0
BITMAP
1C70
1E78
3EF8
3C78
1C70
0000
0FC0
0FC0
1FC0
1F80
1F80
1F80
1F80
3F80
3F00
3F00
3F00
3F00
7F00
7E00
7E00
7E00
7E00
FE00
FC00
ENDCHAR
STARTCHAR Eth
ENCODING 208
SWIDTH 673 0
DWIDTH 20 0
BBX 19 19 0 0
BITMAP
0FFF00
0FFF80
0FC7C0
1FC7E0
1FC7E0
1F87E0
1F87E0
1F87E0
7FE7E0
FFEFE0
3F0FE0
3F0FE0
3F0FC0
7F1FC0
7F1F80
7E3F80
7E3F00
7FFC00
FFF000
ENDCHAR
STARTCHAR Ntilde
ENCODING 209
SWIDTH 644 0
DWIDTH 19 0
BBX 19 25 0 0
BITMAP
007860
00FFC0
01FFC0
010F80
000000
000000
0FE060
0FE0E0
1FE0E0
1FF0E0
1FF0E0
1FF0C0
1BF1C0
3BF1C0
3BF9C0
3BF980
31F980
31FB80
71FF80
71FF80
70FF00
60FF00
60FF00
E0FF00
E07F00
ENDCHAR
STARTCHAR Ograve
ENCODING 210
SWIDTH 685 0
DWIDTH 20 0
BBX 19 25 1 0
BITMAP
07E000
01E000
00F000
007800
001800
000000
01FC00
07FF00
0FCF80
1F8FC0
3F0FC0
7F0FC0
7F0FE0
7E0FE0
FE0FE0
FE0FC0
FE1FC0
FE1FC0
FC1FC0
FC1F80
FC3F80
7C3F00
7E7E00
3FFC00
0FF000
ENDCHAR
STARTCHAR Oacute
ENCODING 211
SWIDTH 685 0
DWIDTH 20 0
BBX 19 25 1 0
BITMAP
0007C0
000F00
001E00
001C00
003800
000000
01FC00
07FF00
0FCF80
1F8FC0
3F0FC0
7F0FC0
7F0FE0
7E0FE0
FE0FE0
FE0FC0
FE1FC0
FE1FC0
FC1FC0
FC1F80
FC3F80
7C3F00
7E7E00
3FFC00
0FF000
ENDCHAR
STARTCHAR Ocircumflex
ENCODING 212
SWIDTH 685 0
DWIDTH 20 0
BBX 19 25 1 0
BITMAP
003E00
007F00
00F300
01C380
038180
000000
01FC00
07FF00
0FCF80
1F8FC0
3F0FC0
7F0FC0
7F0FE0
7E0FE0
FE0FE0
FE0FC0
FE1FC0
FE1FC0
FC1FC0
FC1F80
FC3F80
7C3F00
7E7E00
3FFC00
0FF000
ENDCHAR
STARTCHAR Otilde
ENCODING 213
SWIDTH 685 0
DWIDTH 20 0
BBX 19 25 1 0
BITMAP
00F8C0
01FFC0
03FF80
010F00
000000
000000
01FC00
07FF00
0FCF80
1F8FC0
3F0FC0
7F0FC0
7F0FE0
7E0FE0
FE0FE0
FE0FC0
FE1FC0
FE1FC0
FC1FC0
FC1F80
FC3F80
7C3F00
7E7E00
3FFC00
0FF000
ENDCHAR
STARTCHAR Odieresis
ENCODING 214
SWIDTH 685 0
DWIDTH 20 0
BBX 19 25 1 0
BITMAP
01C300
01E780
01E780
01E780
01C700
000000
01FC00
07FF00
0FCF80
1F8FC0
3F0FC0
7F0FC0
7F0FE0
7E0FE0
FE0FE0
FE0FC0
FE1FC0
FE1FC0
FC1FC0
FC1F80
FC3F80
7C3F00
7E7E00
3FFC00
0FF000
ENDCHAR
STARTCHAR multiply
ENCODING 215
SWIDTH 511 0
DWIDTH 15 0
BBX 15 12 0 3
BITMAP
1C1E
1E3C
0E78
07F0
07E0
03C0
07C0
07C0
0EE0
1CF0
3870
F078
ENDCHAR
STARTCHAR Oslash
ENCODING 216
SWIDTH 685 0
DWIDTH 20 0
BBX 19 19 1 0
BITMAP
01FEC0
07FF80
1FCF80
1F8FC0
3F0FC0
7F0FC0
7F1FE0
7E3FE0
FE6FE0
FEEFC0
FFDFC0
FF9FC0
FF1FC0
FE1F80
FC3F80
7C3F00
7E7E00
7FFC00
EFF000
ENDCHAR
STARTCHAR Ugrave
ENCODING 217
SWIDTH 630 0
DWIDTH 18 0
BBX 18 25 1 0
BITMAP
07E000
01E000
00F000
007800
001800
000000
1F81C0
3F81C0
3F81C0
3F8180
3F0180
3F0380
7F0380
7F0380
7F0300
7E0300
FE0700
FE0700
FE0700
FC0600
FC0E00
FE0C00
FFFC00
7FF800
1FC000
ENDCHAR
STARTCHAR Uacute
ENCODING 218
SWIDTH 630 0
DWIDTH 18 0
BBX 18 25 1 0
BITMAP
0007C0
000F00
001E00
001C00
003800
000000
1F81C0
3F81C0
3F81C0
3F8180
3F0180
3F0380
7F0380
7F0380
7F0300
7E0300
FE0700
FE0700
FE0700
FC0600
FC0E00
FE0C00
FFFC00
7FF800
1FC000
ENDCHAR
STARTCHAR Ucircumflex
ENCODING 219
SWIDTH 630 0
DWIDTH 18 0
BBX 18 25 1 0
BITMAP
003E00
007E00
00E700
01C300
038180
000000
1F81C0
3F81C0
3F81C0
3F8180
3F0180
3F0380
7F0380
7F0380
7F0300
7E0300
FE0700
FE0700
FE0700
FC0600
FC0E00
FE0C00
FFFC00
7FF800
1FC000
ENDCHAR
STARTCHAR Udieresis
ENCODING 220
SWIDTH 630 0
DWIDTH 18 0
BBX 18 25 1 0
BITMAP
00E380
01E780
01E780
01E780
01C380
000000
1F81C0
3F81C0
3F81C0
3F8180
3F0180
3F0380
7F0380
7F0380
7F0300
7E0300
FE0700
FE0700
FE0700
FC0600
FC0E00
FE0C00
FFFC00
7FF800
1FC000
ENDCHAR
STARTCHAR Yacute
ENCODING 221
SWIDTH 570 0
DWIDTH 17 0
BBX 17 25 2 0
BITMAP
001F00
003E00
003800
007000
00E000
000000
FE0780
7F0700
7F0E00
7F0C00
7F1C00
3FB800
3FB800
3FF000
3FE000
1FE000
1FC000
1F8000
1F8000
1F8000
3F8000
3F8000
3F0000
3F0000
3F0000
ENDCHAR
STARTCHAR Thorn
ENCODING 222
SWIDTH 592 0
DWIDTH 17 0
BBX 17 19 0 0
BITMAP
0FC000
0FC000
1FC000
1FFC00
1FFF00
1F9F80
1F8F80
3F8F80
3F0F80
3F0F80
3F1F80
3F1F80
7F1F00
7E3F00
7FFC00
7FF000
7E0000
FE0000
FC0000
ENDCHAR
STARTCHAR germandbls
ENCODING 223
SWIDTH 660 0
DWIDTH 19 0
BBX 19 20 0 0
BITMAP
01FE00
07FF80
0FCFC0
0F87E0
1F87C0
1F8FC0
1F1F80
3F3E00
3F7C00
3F7C00
3F7E00
7E7F00
7E7F80
7E3FC0
7E1FC0
7E0FC0
FC07C0
FC8FC0
FDFF80
FC7E00
ENDCHAR
STARTCHAR agrave
ENCODING 224
SWIDTH 552 0
DWIDTH 16 0
BBX 15 19 0 0
BITMAP
1F00
0780
03C0
01C0
00E0
0000
0FF0
3FFC
3C7E
3C7E
007E
1FFE
7E7E
FCFC
F8FC
F8FC
FFFC
FEFC
7C78
ENDCHAR
STARTCHAR aacute
ENCODING 225
SWIDTH 552 0
DWIDTH 16 0
BBX 15 19 0 0
BITMAP
003E
003C
0078
00E0
00C0
0000
0FF0
3FFC
3C7E
3C7E
007E
1FFE
7E7E
FCFC
F8FC
F8FC
FFFC
FEFC
7C78
ENDCHAR
STARTCHAR acircumflex
ENCODING 226
SWIDTH 552 0
DWIDTH 16 0
BBX 15 19 0 0
BITMAP
01F8
01F8
039C
070C
0C0E
0000
0FF0
3FFC
3C7E
3C7E
007E
1FFE
7E7E
FCFC
F8FC
F8FC
FFFC
FEFC
7C78
ENDCHAR
STARTCHAR atilde
ENCODING 227
SWIDTH 552 0
DWIDTH 16 0
BBX 16 19 0 0
BITMAP
03C3
07FE
0FFE
087C
0000
0000
0FF0
3FFC
3C7E
3C7E
007E
1FFE
7E7E
FCFC
F8FC
F8FC
FFFC
FEFC
7C78
ENDCHAR
STARTCHAR adieresis
ENCODING 228
SWIDTH 552 0
DWIDTH 16 0
BBX 15 19 0 0
BITMAP
071C
0F3C
0F3E
0F3C
061C
0000
0FF0
3FFC
3C7E
3C7E
007E
1FFE
7E7E
FCFC
F8FC
F8FC
FFFC
FEFC
7C78
ENDCHAR
STARTCHAR aring
ENCODING 229
SWIDTH 552 0
DWIDTH 16 0
BBX 15 19 0 0
BITMAP
00E0
01F0
0330
01E0
01C0
0000
0FF0
3FFC
3C7E
3C7E
007E
1FFE
7E7E
FCFC
F8FC
F8FC
FFFC
FEFC
7C78
ENDCHAR
STARTCHAR ae
ENCODING 230
SWIDTH 830 0
DWIDTH 24 0
BBX 24 13 0 0
BITMAP
0FF3F8
3FFFFE
3E7F3E
3C7F3F
007E3F
3FFE3E
7CFFFE
F8FC00
F8FC00
F8FC7C
FFFEFC
FFBFFC
7C0FF0
ENDCHAR
STARTCHAR ccedilla
ENCODING 231
SWIDTH 521 0
DWIDTH 15 0
BBX 15 19 0 -6
BITMAP
03F8
1FFE
3F3E
7E3C
7E3C
7E00
FC00
FC00
FC7C
7C78
7CF8
3FF8
0FF0
0700
0640
07E0
00E0
04E0
07C0
ENDCHAR
STARTCHAR egrave
ENCODING 232
SWIDTH 547 0
DWIDTH 16 0
BBX 15 19 0 0
BITMAP
0F80
03C0
01C0
00E0
0070
0000
03F8
1FFE
3F3E
7E3E
7E3E
7E3E
FFFE
FC00
FC00
7C7C
7CFC
3FFC
0FE0
ENDCHAR
STARTCHAR eacute
ENCODING 233
SWIDTH 547 0
DWIDTH 16 0
BBX 16 19 0 0
BITMAP
001F
003C
0078
0070
00E0
0000
03F8
1FFE
3F3E
7E3E
7E3E
7E3E
FFFE
FC00
FC00
7C7C
7CFC
3FFC
0FE0
ENDCHAR
STARTCHAR ecircumflex
ENCODING 234
SWIDTH 547 0
DWIDTH 16 0
BBX 15 19 0 0
BITMAP
00F8
01FC
03CC
070E
0606
0000
03F8
1FFE
3F3E
7E3E
7E3E
7E3E
FFFE
FC00
FC00
7C7C
7CFC
3FFC
0FE0
ENDCHAR
STARTCHAR edieresis
ENCODING 235
SWIDTH 547 0
DWIDTH 16 0
BBX 16 19 0 0
BITMAP
038E
079F
079F
079E
038E
0000
03F8
1FFE
3F3E
7E3E
7E3E
7E3E
FFFE
FC00
FC00
7C7C
7CFC
3FFC
0FE0
ENDCHAR
STARTCHAR igrave
ENCODING 236
SWIDTH 293 0
DWIDTH 9 0
BBX 9 19 -1 0
BITMAP
F800
3C00
1E00
0E00
0100
0000
1F80
1F80
1F80
1F80
3F00
3F00
3F00
3F00
3F00
7E00
7E00
7E00
7E00
ENDCHAR
STARTCHAR iacute
ENCODING 237
SWIDTH 293 0
DWIDTH 9 0
BBX 11 19 0 0
BITMAP
03E0
07C0
0700
0E00
0000
0000
3F00
3F00
3F00
3F00
7E00
7E00
7E00
7E00
7E00
FC00
FC00
FC00
FC00
ENDCHAR
STARTCHAR icircumflex
ENCODING 238
SWIDTH 293 0
DWIDTH 9 0
BBX 11 19 0 0
BITMAP
0F80
1FC0
38C0
70E0
8000
0000
3F00
3F00
3F00
3F00
7E00
7E00
7E00
7E00
7E00
FC00
FC00
FC00
FC00
ENDCHAR
STARTCHAR idieresis
ENCODING 239
SWIDTH 293 0
DWIDTH 9 0
BBX 11 19 0 0
BITMAP
38E0
79E0
79E0
79E0
70C0
0000
3F00
3F00
3F00
3F00
7E00
7E00
7E00
7E00
7E00
FC00
FC00
FC00
FC00
ENDCHAR
STARTCHAR eth
ENCODING 240
SWIDTH 618 0
DWIDTH 18 0
BBX 19 21 0 0
BITMAP
001000
003C00
001E00
001FE0
00FFE0
00FF80
008F80
000F80
0F8F80
1FEFC0
3FFFC0
7FFF80
7E3F80
7E3F80
FC3F80
FC3F00
FC7F00
7C7E00
7CFC00
3FF800
0FC000
ENDCHAR
STARTCHAR ntilde
ENCODING 241
SWIDTH 586 0
DWIDTH 17 0
BBX 16 19 0 0
BITMAP
03E3
07FF
0FFE
043C
0000
0000
3E3E
3EFF
3FFF
3F3F
7E3F
7E3F
7E3F
7E7E
7E7E
FC7E
FC7E
FC7E
FCFC
ENDCHAR
STARTCHAR ograve
ENCODING 242
SWIDTH 575 0
DWIDTH 17 0
BBX 16 19 0 0
BITMAP
1F00
0780
03C0
01C0
00E0
0000
07F8
1FFC
3F3E
7E3F
7E3F
7E3F
FC3F
FC7F
FC7E
7C7E
7CFC
3FF8
0FE0
ENDCHAR
STARTCHAR oacute
ENCODING 243
SWIDTH 575 0
DWIDTH 17 0
BBX 16 19 0 0
BITMAP
003F
003C
0078
00F0
00C0
0000
07F8
1FFC
3F3E
7E3F
7E3F
7E3F
FC3F
FC7F
FC7E
7C7E
7CFC
3FF8
0FE0
ENDCHAR
STARTCHAR ocircumflex
ENCODING 244
SWIDTH 575 0
DWIDTH 17 0
BBX 16 19 0 0
BITMAP
00F8
01FC
039C
070E
0E06
0000
07F8
1FFC
3F3E
7E3F
7E3F
7E3F
FC3F
FC7F
FC7E
7C7E
7CFC
3FF8
0FE0
ENDCHAR
STARTCHAR otilde
ENCODING 245
SWIDTH 575 0
DWIDTH 17 0
BBX 16 19 0 0
BITMAP
01E1
07FF
07FE
0C3C
0000
0000
07F8
1FFC
3F3E
7E3F
7E3F
7E3F
FC3F
FC7F
FC7E
7C7E
7CFC
3FF8
0FE0
ENDCHAR
STARTCHAR odieresis
ENCODING 246
SWIDTH 575 0
DWIDTH 17 0
BBX 16 19 0 0
BITMAP
030E
079E
079E
079E
071C
0000
07F8
1FFC
3F3E
7E3F
7E3F
7E3F
FC3F
FC7F
FC7E
7C7E
7CFC
3FF8
0FE0
ENDCHAR
STARTCHAR divide
ENCODING 247
SWIDTH 460 0
DWIDTH 13 0
BBX 12 17 1 1
BITMAP
0380
07C0
07C0
07C0
0380
0000
0000
FFF0
FFF0
FFF0
0000
0000
1C00
3E00
3E00
3E00
1C00
ENDCHAR
STARTCHAR oslash
ENCODING 248
SWIDTH 575 0
DWIDTH 17 0
BBX 16 15 0 -1
BITMAP
0004
07FE
1FFE
3F3E
7E3F
7E7F
7EFF
FDBF
FF7F
FF7E
7E7E
7CFC
3FF8
3FE0
2000
ENDCHAR
STARTCHAR ugrave
ENCODING 249
SWIDTH 585 0
DWIDTH 17 0
BBX 17 19 0 0
BITMAP
1F0000
078000
03C000
01E000
000000
000000
3F1F80
3F3F00
3F3F00
7E3F00
7E3F00
7E3F00
7E7E00
7E7E00
FC7E00
FC7E00
FFFE00
7F7C00
3C7C00
ENDCHAR
STARTCHAR uacute
ENCODING 250
SWIDTH 585 0
DWIDTH 17 0
BBX 17 19 0 0
BITMAP
003F00
003C00
007800
00E000
000000
000000
3F1F80
3F3F00
3F3F00
7E3F00
7E3F00
7E3F00
7E7E00
7E7E00
FC7E00
FC7E00
FFFE00
7F7C00
3C7C00
ENDCHAR
STARTCHAR ucircumflex
ENCODING 251
SWIDTH 585 0
DWIDTH 17 0
BBX 17 19 0 0
BITMAP
00F800
01FC00
03CE00
070600
000100
000000
3F1F80
3F3F00
3F3F00
7E3F00
7E3F00
7E3F00
7E7E00
7E7E00
FC7E00
FC7E00
FFFE00
7F7C00
3C7C00
ENDCHAR
STARTCHAR udieresis
ENCODING 252
SWIDTH 585 0
DWIDTH 17 0
BBX 17 19 0 0
BITMAP
038E00
079E00
079E00
079E00
030E00
000000
3F1F80
3F3F00
3F3F00
7E3F00
7E3F00
7E3F00
7E7E00
7E7E00
FC7E00
FC7E00
FFFE00
7F7C00
3C7C00
ENDCHAR
STARTCHAR yacute
ENCODING 253
SWIDTH 517 0
DWIDTH 15 0
BBX 18 24 -2 -5
BITMAP
0007C0
000F00
000E00
001C00
000000
000000
1F83C0
1F8380
1FC700
0FC700
0FCE00
0FCE00
0FDC00
0FDC00
0FF800
0FF800
07F000
07F000
07E000
07E000
07C000
0F8000
FF0000
FC0000
ENDCHAR
STARTCHAR thorn
ENCODING 254
SWIDTH 584 0
DWIDTH 17 0
BBX 17 25 -1 -5
BITMAP
07E000
0FC000
0FC000
0FC000
0FC000
0FC000
1F8000
1F9F00
1FBF80
1FFF80
1F9F80
3F1F80
3F1F80
3F1F80
3F1F80
3F3F00
7F3F00
7FFF00
7EFE00
7E7C00
7E0000
FC0000
FC0000
FC0000
FC0000
ENDCHAR
STARTCHAR ydieresis
ENCODING 255
SWIDTH 517 0
DWIDTH 15 0
BBX 18 24 -2 -5
BITMAP
00E380
00F3C0
01F3C0
01F3C0
00E380
000000
1F83C0
1F8380
1FC700
0FC700
0FCE00
0FCE00
0FDC00
0FDC00
0FF800
0FF800
07F000
07F000
07E000
07E000
07C000
0F8000
FF0000
FC0000
ENDCHAR
STARTCHAR Amacron
ENCODING 256
SWIDTH 602 0
DWIDTH 17 0
BBX 18 24 -1 0
BITMAP
01FFC0
01FFC0
000000
000000
000000
00FE00
01FE00
01FE00
01FE00
03FF00
037F00
077F00
067F00
0E7F00
0E7F00
1C3F00
1C3F00
1FFF00
3FFF00
303F80
703F80
703F80
E03F80
E03F80
ENDCHAR
STARTCHAR amacron
ENCODING 257
SWIDTH 552 0
DWIDTH 16 0
BBX 15 18 0 0
BITMAP
07FE
0FFE
0000
0000
0000
0FF0
3FFC
3C7E
3C7E
007E
1FFE
7E7E
FCFC
F8FC
F8FC
FFFC
FEFC
7C78
ENDCHAR
STARTCHAR Abreve
ENCODING 258
SWIDTH 602 0
DWIDTH 17 0
BBX 18 25 -1 0
BITMAP
0040C0
00E380
007F00
003E00
000000
000000
00FE00
01FE00
01FE00
01FE00
03FF00
037F00
077F00
067F00
0E7F00
0E7F00
1C3F00
1C3F00
1FFF00
3FFF00
303F80
703F80
703F80
E03F80
E03F80
ENDCHAR
STARTCHAR abreve
ENCODING 259
SWIDTH 552 0
DWIDTH 16 0
BBX 15 19 0 0
BITMAP
0206
071C
03F8
01F0
0000
0000
0FF0
3FFC
3C7E
3C7E
007E
1FFE
7E7E
FCFC
F8FC
F8FC
FFFC
FEFC
7C78
ENDCHAR
STARTCHAR Aogonek
ENCODING 260
SWIDTH 602 0
DWIDTH 17 0
BBX 17 25 -1 -6
BITMAP
00FE00
01FE00
01FE00
01FE00
03FF00
037F00
077F00
067F00
0E7F00
0E7F00
1C3F00
1C3F00
1FFF00
3FFF00
303F80
703F80
703F80
E03F80
E03F80
000E00
001C00
003C00
003D00
003F80
001E00
ENDCHAR
STARTCHAR aogonek
ENCODING 261
SWIDTH 552 0
DWIDTH 16 0
BBX 15 19 0 -6
BITMAP
0FF0
3FFC
3C7E
3C7E
007E
1FFE
7E7E
FCFC
F8FC
F8FC
FFFC
FEFC
7C78
0070
00E0
01C0
01E8
01F8
01F0
ENDCHAR
STARTCHAR Cacute
ENCODING 262
SWIDTH 639 0
DWIDTH 19 0
BBX 18 25 1 0
BITMAP
000FC0
000F00
001E00
001C00
003800
000000
01FE00
07FFC0
0FCFC0
1F8FC0
3F0FC0
7F0F80
7F0F80
7E0000
FE0000
FE0000
FE0000
FE0080
FE1F00
FC1F00
FC3F00
7E3F00
7E7F00
3FFE00
0FF000
ENDCHAR
STARTCHAR cacute
ENCODING 263
SWIDTH 521 0
DWIDTH 15 0
BBX 16 19 0 0
BITMAP
001F
003C
0078
0070
00E0
0000
03F8
1FFE
3F3E
7E3C
7E3C
7E00
FC00
FC00
FC7C
7C78
7CF8
3FF8
0FF0
ENDCHAR
STARTCHAR Ccircumflex
ENCODING 264
SWIDTH 639 0
DWIDTH 19 0
BBX 18 25 1 0
BITMAP
007E00
007E00
00E700
01C300
030380
000000
01FE00
07FFC0
0FCFC0
1F8FC0
3F0FC0
7F0F80
7F0F80
7E0000
FE0000
FE0000
FE0000
FE0080
FE1F00
FC1F00
FC3F00
7E3F00
7E7F00
3FFE00
0FF000
ENDCHAR
STARTCHAR ccircumflex
ENCODING 265
SWIDTH 521 0
DWIDTH 15 0
BBX 15 19 0 0
BITMAP
00F8
01FC
039C
070E
0E06
0000
03F8
1FFE
3F3E
7E3C
7E3C
7E00
FC00
FC00
FC7C
7C78
7CF8
3FF8
0FF0
ENDCHAR
STARTCHAR Cdotaccent
ENCODING 266
SWIDTH 639 0
DWIDTH 19 0
BBX 18 25 1 0
BITMAP
003C00
007E00
007E00
007C00
003800
000000
01FE00
07FFC0
0FCFC0
1F8FC0
3F0FC0
7F0F80
7F0F80
7E0000
FE0000
FE0000
FE0000
FE0080
FE1F00
FC1F00
FC3F00
7E3F00
7E7F00
3FFE00
0FF000
ENDCHAR
STARTCHAR cdotaccent
ENCODING 267
SWIDTH 521 0
DWIDTH 15 0
BBX 15 19 0 0
BITMAP
0070
00F8
01F8
00F8
00F0
0000
03F8
1FFE
3F3E
7E3C
7E3C
7E00
FC00
FC00
FC7C
7C78
7CF8
3FF8
0FF0
ENDCHAR
STARTCHAR Ccaron
ENCODING 268
SWIDTH 639 0
DWIDTH 19 0
BBX 18 25 1 0
BITMAP
01C1C0
00C780
00EF00
007E00
007C00
000000
01FE00
07FFC0
0FCFC0
1F8FC0
3F0FC0
7F0F80
7F0F80
7E0000
FE0000
FE0000
FE0000
FE0080
FE1F00
FC1F00
FC3F00
7E3F00
7E7F00
3FFE00
0FF000
ENDCHAR
STARTCHAR ccaron
ENCODING 269
SWIDTH 521 0
DWIDTH 15 0
BBX 16 19 0 0
BITMAP
0707
038E
01FC
01F8
00F0
0000
03F8
1FFE
3F3E
7E3C
7E3C
7E00
FC00
FC00
FC7C
7C78
7CF8
3FF8
0FF0
ENDCHAR
STARTCHAR Dcaron
ENCODING 270
SWIDTH 662 0
DWIDTH 19 0
BBX 19 25 0 0
BITMAP
0181C0
01C380
00EF00
007C00
007800
000000
0FFE00
0FFF80
1FCFC0
1F87C0
1F87E0
1F87E0
1F87E0
3F8FE0
3F0FE0
3F0FE0
3F0FE0
3F0FC0
7F1FC0
7E1FC0
7E1F80
7E3F00
7E7E00
FFFC00
FFF000
ENDCHAR
STARTCHAR dcaron
ENCODING 271
SWIDTH 673 0
DWIDTH 20 0
BBX 23 20 0 0
BITMAP
000FC0
000FDE
000FDE
001FBE
001F9E
001F8C
001F98
0FBF30
1FFF00
3F7F00
7E3F00
7E3F00
7E7E00
FC7E00
FC7E00
FC7E00
FCFE00
FFFC00
7F7C00
3E7C00
ENDCHAR
STARTCHAR Dcroat
ENCODING 272
SWIDTH 673 0
DWIDTH 20 0
BBX 19 19 0 0
BITMAP
0FFF00
0FFF80
0FC7C0
1FC7E0
1FC7E0
1F87E0
1F87E0
1F87E0
7FE7E0
FFEFE0
3F0FE0
3F0FE0
3F0FC0
7F1FC0
7F1F80
7E3F80
7E3F00
7FFC00
FFF000
ENDCHAR
STARTCHAR dcroat
ENCODING 273
SWIDTH 577 0
DWIDTH 17 0
BBX 20 20 0 0
BITMAP
000FC0
000FC0
000F80
007FF0
007FE0
009F80
001F80
0FBF00
1FFF00
3FFF00
7E3F00
7E3F00
7E7E00
FC7E00
FC7E00
FC7E00
FCFE00
FFFC00
7F7C00
3C7C00
ENDCHAR
STARTCHAR Emacron
ENCODING 274
SWIDTH 503 0
DWIDTH 15 0
BBX 16 24 0 0
BITMAP
03FF
07FF
0000
0000
0000
0FFF
0FFF
1FC0
1F80
1F80
1F80
1F80
3F80
3FF8
3FF8
3F00
3F00
7F00
7E00
7E00
7E00
7E00
FFF8
FFF0
ENDCHAR
STARTCHAR emacron
ENCODING 275
SWIDTH 547 0
DWIDTH 16 0
BBX 16 18 0 0
BITMAP
03FF
07FF
0000
0000
0000
03F8
1FFE
3F3E
7E3E
7E3E
7E3E
FFFE
FC00
FC00
7C7C
7CFC
3FFC
0FE0
ENDCHAR
STARTCHAR Ebreve
ENCODING 276
SWIDTH 503 0
DWIDTH 15 0
BBX 16 25 0 0
BITMAP
0103
030E
01FC
00F8
0000
0000
0FFF
0FFF
1FC0
1F80
1F80
1F80
1F80
3F80
3FF8
3FF8
3F00
3F00
7F00
7E00
7E00
7E00
7E00
FFF8
FFF0
ENDCHAR
STARTCHAR ebreve
ENCODING 277
SWIDTH 547 0
DWIDTH 16 0
BBX 15 19 0 0
BITMAP
0206
030E
03FC
01F0
0000
0000
03F8
1FFE
3F3E
7E3E
7E3E
7E3E
FFFE
FC00
FC00
7C7C
7CFC
3FFC
0FE0
ENDCHAR
STARTCHAR Edotaccent
ENCODING 278
SWIDTH 503 0
DWIDTH 15 0
BBX 16 25 0 0
BITMAP
0078
00F8
00F8
00F8
00F0
0000
0FFF
0FFF
1FC0
1F80
1F80
1F80
1F80
3F80
3FF8
3FF8
3F00
3F00
7F00
7E00
7E00
7E00
7E00
FFF8
FFF0
ENDCHAR
STARTCHAR edotaccent
ENCODING 279
SWIDTH 547 0
DWIDTH 16 0
BBX 15 19 0 0
BITMAP
00F0
01F8
01F8
01F8
00F0
0000
03F8
1FFE
3F3E
7E3E
7E3E
7E3E
FFFE
FC00
FC00
7C7C
7CFC
3FFC
0FE0
ENDCHAR
STARTCHAR Eogonek
ENCODING 280
SWIDTH 503 0
DWIDTH 15 0
BBX 16 25 0 -6
BITMAP
0FFF
0FFF
1FC0
1F80
1F80
1F80
1F80
3F80
3FF8
3FF8
3F00
3F00
7F00
7E00
7E00
7E00
7E00
FFF8
FFF0
0700
0E00
1C00
1E80
1FC0
1F00
ENDCHAR
STARTCHAR eogonek
ENCODING 281
SWIDTH 547 0
DWIDTH 16 0
BBX 15 19 0 -6
BITMAP
03F8
1FFE
3F3E
7E3E
7E3E
7E3E
FFFE
FC00
FC00
7C7C
7CFC
3FFC
0FF0
01C0
0380
0780
0790
07F0
03C0
ENDCHAR
STARTCHAR Ecaron
ENCODING 282
SWIDTH 503 0
DWIDTH 15 0
BBX 16 25 0 0
BITMAP
0703
038E
01DC
01F8
00F0
0000
0FFF
0FFF
1FC0
1F80
1F80
1F80
1F80
3F80
3FF8
3FF8
3F00
3F00
7F00
7E00
7E00
7E00
7E00
FFF8
FFF0
ENDCHAR
STARTCHAR ecaron
ENCODING 283
SWIDTH 547 0
DWIDTH 16 0
BBX 16 19 0 0
BITMAP
0707
038E
01DC
01F8
00F0
0000
03F8
1FFE
3F3E
7E3E
7E3E
7E3E
FFFE
FC00
FC00
7C7C
7CFC
3FFC
0FE0
ENDCHAR
STARTCHAR Gcircumflex
ENCODING 284
SWIDTH 642 0
DWIDTH 19 0
BBX 18 25 1 0
BITMAP
003E00
007E00
00E700
01C300
038180
000000
01FE00
07FFC0
0FCFC0
1F8FC0
3F0F80
7F0F80
7F0F80
7E0000
FE0000
FE0000
FE7F80
FE7F80
FE1F00
FE1F00
FE1F00
7E3F00
7E7F00
3FFE00
0F8E00
ENDCHAR
STARTCHAR gcircumflex
ENCODING 285
SWIDTH 578 0
DWIDTH 17 0
BBX 17 24 0 -5
BITMAP
007C00
00FE00
01EE00
038700
070300
000000
0F9F80
1FDF00
3FFF00
7E3F00
7E3F00
7E7E00
FC7E00
FC7E00
FC7E00
FCFE00
FFFC00
7FFC00
3CFC00
00FC00
00F800
01F000
7FE000
FF8000
ENDCHAR
STARTCHAR Gbreve
ENCODING 286
SWIDTH 642 0
DWIDTH 19 0
BBX 18 25 1 0
BITMAP
008180
00C380
00FF00
007C00
000000
000000
01FE00
07FFC0
0FCFC0
1F8FC0
3F0F80
7F0F80
7F0F80
7E0000
FE0000
FE0000
FE7F80
FE7F80
FE1F00
FE1F00
FE1F00
7E3F00
7E7F00
3FFE00
0F8E00
ENDCHAR
STARTCHAR gbreve
ENCODING 287
SWIDTH 578 0
DWIDTH 17 0
BBX 17 24 0 -5
BITMAP
010300
018700
01FE00
00F800
000000
000000
0F9F80
1FDF00
3FFF00
7E3F00
7E3F00
7E7E00
FC7E00
FC7E00
FC7E00
FCFE00
FFFC00
7FFC00
3CFC00
00FC00
00F800
01F000
7FE000
FF8000
ENDCHAR
STARTCHAR Gdotaccent
ENCODING 288
SWIDTH 642 0
DWIDTH 19 0
BBX 18 25 1 0
BITMAP
003C00
007C00
007C00
007C00
007800
000000
01FE00
07FFC0
0FCFC0
1F8FC0
3F0F80
7F0F80
7F0F80
7E0000
FE0000
FE0000
FE7F80
FE7F80
FE1F00
FE1F00
FE1F00
7E3F00
7E7F00
3FFE00
0F8E00
ENDCHAR
STARTCHAR gdotaccent
ENCODING 289
SWIDTH 578 0
DWIDTH 17 0
BBX 17 24 0 -5
BITMAP
003800
007C00
00FC00
00FC00
007800
000000
0F9F80
1FDF00
3FFF00
7E3F00
7E3F00
7E7E00
FC7E00
FC7E00
FC7E00
FCFE00
FFFC00
7FFC00
3CFC00
00FC00
00F800
01F000
7FE000
FF8000
ENDCHAR
STARTCHAR Gcommaaccent
ENCODING 290
SWIDTH 642 0
DWIDTH 19 0
BBX 18 27 1 -8
BITMAP
01FE00
07FFC0
0FCFC0
1F8FC0
3F0F80
7F0F80
7F0F80
7E0000
FE0000
FE0000
FE7F80
FE7F80
FE1F00
FE1F00
FE1F00
7E3F00
7E7F00
3FFE00
0F8E00
000000
010000
03C000
03C000
01C000
018000
030000
060000
ENDCHAR
STARTCHAR gcommaaccent
ENCODING 291
SWIDTH 578 0
DWIDTH 17 0
BBX 17 26 0 -5
BITMAP
000800
003800
007000
006000
00F800
00F000
007000
000000
0F9F80
1FDF00
3FFF00
7E3F00
7E3F00
7E7E00
FC7E00
FC7E00
FC7E00
FCFE00
FFFC00
7FFC00
3CFC00
00FC00
00F800
01F000
7FE000
FF8000
ENDCHAR
STARTCHAR Hcircumflex
ENCODING 292
SWIDTH 666 0
DWIDTH 19 0
BBX 20 25 0 0
BITMAP
001E00
003F00
007380
00E180
0180C0
000000
0FC3F0
0FC7F0
1FC7F0
1FC7E0
1F87E0
1F87E0
1F8FE0
3F8FE0
3F8FC0
3FFFC0
3FFFC0
3F1FC0
7F1F80
7E1F80
7E1F80
7E1F80
7E3F80
FE3F00
FC3F00
ENDCHAR
STARTCHAR hcircumflex
ENCODING 293
SWIDTH 586 0
DWIDTH 17 0
BBX 20 20 0 0
BITMAP
0FC000
0F87C0
1F8FE0
1F9CE0
1FF070
1F8000
3F0000
3F3E00
3F7F00
3FFF00
3F3F00
7E3F00
7E3F00
7E3F00
7E7E00
7E7E00
FC7E00
FC7E00
FC7E00
FCFC00
ENDCHAR
STARTCHAR Hbar
ENCODING 294
SWIDTH 704 0
DWIDTH 20 0
BBX 21 19 1 0
BITMAP
1FC7F0
1F87E0
1F87E0
1F87E0
FFFFF8
FFFFF8
3F0FC0
3F0FC0
3F0FC0
3FFFC0
7FFF80
7E1F80
7E1F80
7E1F80
FE3F80
FE3F00
FC3F00
FC3F00
FC7F00
ENDCHAR
STARTCHAR hbar
ENCODING 295
SWIDTH 586 0
DWIDTH 17 0
BBX 16 20 0 0
BITMAP
0FC0
0F80
1F80
FFE0
FFE0
1F80
3F00
3F3E
3F7F
3FFF
3F3F
7E3F
7E3F
7E3F
7E7E
7E7E
FC7E
FC7E
FC7E
FCFC
ENDCHAR
STARTCHAR Itilde
ENCODING 296
SWIDTH 326 0
DWIDTH 9 0
BBX 14 25 0 0
BITMAP
0704
1FFC
1FF8
30F0
0000
0000
0FC0
0FC0
1FC0
1F80
1F80
1F80
1F80
3F80
3F00
3F00
3F00
3F00
7F00
7E00
7E00
7E00
7E00
FE00
FC00
ENDCHAR
STARTCHAR itilde
ENCODING 297
SWIDTH 293 0
DWIDTH 9 0
BBX 12 19 0 0
BITMAP
1E10
3FF0
7FE0
43C0
0000
0000
3F00
3F00
3F00
3F00
7E00
7E00
7E00
7E00
7E00
FC00
FC00
FC00
FC00
ENDCHAR
STARTCHAR Imacron
ENCODING 298
SWIDTH 326 0
DWIDTH 9 0
BBX 13 24 0 0
BITMAP
1FF8
3FF8
0000
0000
0000
0FC0
0FC0
1FC0
1F80
1F80
1F80
1F80
3F80
3F00
3F00
3F00
3F00
7F00
7E00
7E00
7E00
7E00
FE00
FC00
ENDCHAR
STARTCHAR imacron
ENCODING 299
SWIDTH 293 0
DWIDTH 9 0
BBX 12 18 0 0
BITMAP
7FF0
7FE0
0000
0000
0000
3F00
3F00
3F00
3F00
7E00
7E00
7E00
7E00
7E00
FC00
FC00
FC00
FC00
ENDCHAR
STARTCHAR Ibreve
ENCODING 300
SWIDTH 326 0
DWIDTH 9 0
BBX 13 25 0 0
BITMAP
1818
0C30
0FF0
07C0
0000
0000
0FC0
0FC0
1FC0
1F80
1F80
1F80
1F80
3F80
3F00
3F00
3F00
3F00
7F00
7E00
7E00
7E00
7E00
FE00
FC00
ENDCHAR
STARTCHAR ibreve
ENCODING 301
SWIDTH 293 0
DWIDTH 9 0
BBX 11 19 0 0
BITMAP
2060
30E0
3FC0
1F00
0000
0000
3F00
3F00
3F00
3F00
7E00
7E00
7E00
7E00
7E00
FC00
FC00
FC00
FC00
ENDCHAR
STARTCHAR Iogonek
ENCODING 302
SWIDTH 326 0
DWIDTH 9 0
BBX 11 25 -1 -6
BITMAP
07E0
07E0
0FE0
0FC0
0FC0
0FC0
0FC0
1FC0
1F80
1F80
1F80
1F80
3F80
3F00
3F00
3F00
3F00
7F00
7E00
3800
7000
E000
E400
FC00
F800
ENDCHAR
STARTCHAR iogonek
ENCODING 303
SWIDTH 293 0
DWIDTH 9 0
BBX 11 25 -2 -6
BITMAP
03C0
07E0
07E0
07E0
03C0
0000
0FC0
0FC0
0FC0
0FC0
1F80
1F80
1F80
1F80
1F80
3F00
3F00
3F00
3F00
3800
7000
F000
F200
FE00
7800
ENDCHAR
STARTCHAR Idotaccent
ENCODING 304
SWIDTH 326 0
DWIDTH 9 0
BBX 10 25 0 0
BITMAP
0380
07C0
0FC0
0FC0
0780
0000
0FC0
0FC0
1FC0
1F80
1F80
1F80
1F80
3F80
3F00
3F00
3F00
3F00
7F00
7E00
7E00
7E00
7E00
FE00
FC00
ENDCHAR
STARTCHAR dotlessi
ENCODING 305
SWIDTH 293 0
DWIDTH 9 0
BBX 8 13 0 0
BITMAP
3F
3F
3F
3F
7E
7E
7E
7E
7E
FC
FC
FC
FC
ENDCHAR
STARTCHAR IJ
ENCODING 306
SWIDTH 912 0
DWIDTH 26 0
BBX 27 19 0 0
BITMAP
0FC007E0
0FC007E0
1FC00FE0
1F800FE0
1F800FC0
1F800FC0
1F800FC0
3F801FC0
3F001FC0
3F001F80
3F001F80
3F001F80
7F3E3F80
7E7E3F00
7E7E3F00
7E7E3F00
7E7E7E00
FE3FFC00
FC0FF000
ENDCHAR
STARTCHAR ij
ENCODING 307
SWIDTH 580 0
DWIDTH 17 0
BBX 17 24 0 -5
BITMAP
0F0700
1F8F80
1F9F80
1F9F80
0F0F00
000000
3F1F80
3F3F00
3F3F00
3F3F00
7E3F00
7E3E00
7E7E00
7E7E00
7E7E00
FC7E00
FC7C00
FCFC00
FCFC00
00FC00
00F800
01F800
07E000
078000
ENDCHAR
STARTCHAR Jcircumflex
ENCODING 308
SWIDTH 590 0
DWIDTH 17 0
BBX 21 25 -1 0
BITMAP
0003E0
0007F0
000F30
001C38
001818
000000
0007E0
000FE0
000FC0
000FC0
000FC0
000FC0
001FC0
001F80
001F80
001F80
003F80
003F80
7E3F00
7E3F00
7C3F00
7C7E00
FE7E00
3FFC00
0FE000
ENDCHAR
STARTCHAR jcircumflex
ENCODING 309
SWIDTH 294 0
DWIDTH 9 0
BBX 14 24 -3 -5
BITMAP
01F0
03F8
0738
0E1C
1000
0000
07E0
07E0
07E0
07E0
0FC0
0FC0
0FC0
0FC0
0FC0
1F80
1F80
1F80
1F80
1F00
3F00
3E00
FC00
F000
ENDCHAR
STARTCHAR Kcommaaccent
ENCODING 310
SWIDTH 608 0
DWIDTH 18 0
BBX 19 28 0 -9
BITMAP
0FC1E0
0FC3C0
1FC380
1FC700
1F8E00
1F9C00
1FB800
3FF000
3FF800
3FF800
3FFC00
3FFC00
7F7C00
7E7E00
7E7E00
7E7F00
7E3F00
FE3F00
FC3F80
000000
000000
038000
07C000
03C000
018000
038000
060000
040000
ENDCHAR
STARTCHAR kcommaaccent
ENCODING 311
SWIDTH 599 0
DWIDTH 17 0
BBX 18 29 0 -9
BITMAP
0FC000
0F8000
1F8000
1F8000
1F8000
1F8000
3F0000
3F07C0
3F0F00
3F1E00
3F3C00
7EF800
7FF000
7FF800
7FF800
7EFC00
FCFC00
FC7E00
FC7E00
FC3F00
000000
000000
038000
078000
078000
038000
030000
0E0000
040000
ENDCHAR
STARTCHAR kgreenlandic
ENCODING 312
SWIDTH 583 0
DWIDTH 17 0
BBX 18 13 0 0
BITMAP
3F07C0
3F0F00
3F1E00
3F3C00
7EF800
7FF000
7FF800
7FF800
7EFC00
FCFC00
FC7E00
FC7E00
FC3F00
ENDCHAR
STARTCHAR Lacute
ENCODING 313
SWIDTH 482 0
DWIDTH 14 0
BBX 14 25 0 0
BITMAP
007C
00F0
01E0
01C0
0380
0000
0FC0
0FC0
1FC0
1F80
1F80
1F80
1F80
3F80
3F00
3F00
3F00
3F00
7F00
7E00
7E00
7E00
7E08
FFF0
FFF0
ENDCHAR
STARTCHAR lacute
ENCODING 314
SWIDTH 293 0
DWIDTH 9 0
BBX 13 26 0 0
BITMAP
00F8
01F0
03C0
0380
0700
0000
0FC0
0F80
1F80
1F80
1F80
1F80
3F00
3F00
3F00
3F00
3F00
7E00
7E00
7E00
7E00
7E00
FC00
FC00
FC00
FC00
ENDCHAR
STARTCHAR Lcommaaccent
ENCODING 315
SWIDTH 482 0
DWIDTH 14 0
BBX 13 28 0 -9
BITMAP
0FC0
0FC0
1FC0
1F80
1F80
1F80
1F80
3F80
3F00
3F00
3F00
3F00
7F00
7E00
7E00
7E00
7E08
FFF0
FFF0
0000
0000
0E00
1F00
0F00
0600
0E00
1800
1000
ENDCHAR
STARTCHAR lcommaaccent
ENCODING 316
SWIDTH 293 0
DWIDTH 9 0
BBX 10 29 0 -9
BITMAP
0FC0
0F80
1F80
1F80
1F80
1F80
3F00
3F00
3F00
3F00
3F00
7E00
7E00
7E00
7E00
7E00
FC00
FC00
FC00
FC00
0000
0000
7000
F000
F000
7000
6000
C000
8000
ENDCHAR
STARTCHAR Lcaron
ENCODING 317
SWIDTH 482 0
DWIDTH 14 0
BBX 14 25 0 0
BITMAP
180C
0C38
0E70
07E0
03C0
0000
0FC0
0FC0
1FC0
1F80
1F80
1F80
1F80
3F80
3F00
3F00
3F00
3F00
7F00
7E00
7E00
7E00
7E08
FFF0
FFF0
ENDCHAR
STARTCHAR lcaron
ENCODING 318
SWIDTH 393 0
DWIDTH 11 0
BBX 15 20 0 0
BITMAP
0FC0
0F9C
1FBE
1FBE
1F9E
1F9C
3F38
3F30
3F00
3F00
3F00
7E00
7E00
7E00
7E00
7E00
FC00
FC00
FC00
FC00
ENDCHAR
STARTCHAR Ldot
ENCODING 319
SWIDTH 505 0
DWIDTH 15 0
BBX 15 19 0 0
BITMAP
0FC0
0FC0
1FC0
1F80
1F80
1F80
1F80
3F80
3F3C
3F7E
3F7E
3F7E
7F3C
7E00
7E00
7E00
7E08
FFF0
FFF0
ENDCHAR
STARTCHAR ldot
ENCODING 320
SWIDTH 472 0
DWIDTH 14 0
BBX 14 20 0 0
BITMAP
0FC0
0F80
1F80
1F80
1F80
1F80
3F00
3F00
3F00
3F38
3F7C
7EFC
7E7C
7E78
7E00
7E00
FC00
FC00
FC00
FC00
ENDCHAR
STARTCHAR Lslash
ENCODING 321
SWIDTH 514 0
DWIDTH 15 0
BBX 14 19 0 0
BITMAP
07E0
07E0
0FE0
0FC0
0FC0
0FC0
0FC8
1FF0
3FF0
FFF0
FF80
BF80
3F80
3F00
3F00
3F00
7F04
7FF8
7FF8
ENDCHAR
STARTCHAR lslash
ENCODING 322
SWIDTH 399 0
DWIDTH 12 0
BBX 13 20 0 0
BITMAP
07F0
07E0
07E0
07E0
07E0
0FC0
0FF8
0FF8
0FF0
7FC0
7F80
FF80
9F80
1F80
1F80
3F00
3F00
3F00
3F00
7E00
ENDCHAR
STARTCHAR Nacute
ENCODING 323
SWIDTH 644 0
DWIDTH 19 0
BBX 19 25 0 0
BITMAP
0007C0
000780
000F00
001C00
001800
000000
0FE060
0FE0E0
1FE0E0
1FF0E0
1FF0E0
1FF0C0
1BF1C0
3BF1C0
3BF9C0
3BF980
31F980
31FB80
71FF80
71FF80
70FF00
60FF00
60FF00
E0FF00
E07F00
ENDCHAR
STARTCHAR nacute
ENCODING 324
SWIDTH 586 0
DWIDTH 17 0
BBX 16 19 0 0
BITMAP
003E
007C
0070
00E0
00C0
0000
3E3E
3EFF
3FFF
3F3F
7E3F
7E3F
7E3F
7E7E
7E7E
FC7E
FC7E
FC7E
FCFC
ENDCHAR
STARTCHAR Ncommaaccent
ENCODING 325
SWIDTH 644 0
DWIDTH 19 0
BBX 19 28 0 -9
BITMAP
0FE060
0FE0E0
1FE0E0
1FF0E0
1FF0E0
1FF0C0
1BF1C0
3BF1C0
3BF9C0
3BF980
31F980
31FB80
71FF80
71FF80
70FF00
60FF00
60FF00
E0FF00
E07F00
000000
000000
038000
03C000
07C000
018000
038000
060000
040000
ENDCHAR
STARTCHAR ncommaaccent
ENCODING 326
SWIDTH 586 0
DWIDTH 17 0
BBX 16 22 0 -9
BITMAP
3E3E
3EFF
3FFF
3F3F
7E3F
7E3F
7E3F
7E7E
7E7E
FC7E
FC7E
FC7E
FCFC
0000
0000
0700
0F80
0780
0700
0600
0C00
0800
ENDCHAR
STARTCHAR Ncaron
ENCODING 327
SWIDTH 644 0
DWIDTH 19 0
BBX 19 25 0 0
BITMAP
0181C0
00C380
00EF00
007E00
007C00
000000
0FE060
0FE0E0
1FE0E0
1FF0E0
1FF0E0
1FF0C0
1BF1C0
3BF1C0
3BF9C0
3BF980
31F980
31FB80
71FF80
71FF80
70FF00
60FF00
60FF00
E0FF00
E07F00
ENDCHAR
STARTCHAR ncaron
ENCODING 328
SWIDTH 586 0
DWIDTH 17 0
BBX 16 19 0 0
BITMAP
0607
031C
03B8
01F8
01F0
0000
3E3E
3EFF
3FFF
3F3F
7E3F
7E3F
7E3F
7E7E
7E7E
FC7E
FC7E
FC7E
FCFC
ENDCHAR
STARTCHAR napostrophe
ENCODING 329
SWIDTH 586 0
DWIDTH 17 0
BBX 16 23 0 0
BITMAP
0E00
1F00
1F00
1F00
0E00
0E00
1C00
3000
0000
0000
3E3E
3EFF
3FFF
3F3F
7E3F
7E3F
7E3F
7E7E
7E7E
FC7E
FC7E
FC7E
FCFC
ENDCHAR
STARTCHAR Eng
ENCODING 330
SWIDTH 644 0
DWIDTH 19 0
BBX 19 24 0 -5
BITMAP
0FE060
0FE0E0
1FE0E0
1FF0E0
1FF0E0
1BF0C0
1BF1C0
3BF1C0
3BF9C0
39F980
31F980
31FB80
70FF80
70FF80
70FF00
607F00
607F00
E07F00
E07F00
007E00
007E00
0FFC00
0FF800
1FE000
ENDCHAR
STARTCHAR eng
ENCODING 331
SWIDTH 586 0
DWIDTH 17 0
BBX 16 18 0 -5
BITMAP
3E3E
3EFF
3FFF
3F3F
7E3F
7E3F
7E3F
7E7E
7E7E
FC7E
FC7E
FC7E
FCFC
00FC
00FC
01F8
03F0
03C0
ENDCHAR
STARTCHAR Omacron
ENCODING 332
SWIDTH 685 0
DWIDTH 20 0
BBX 19 24 1 0
BITMAP
01FF80
01FF80
000000
000000
000000
01FC00
07FF00
0FCF80
1F8FC0
3F0FC0
7F0FC0
7F0FE0
7E0FE0
FE0FE0
FE0FC0
FE1FC0
FE1FC0
FC1FC0
FC1F80
FC3F80
7C3F00
7E7E00
3FFC00
0FF000
ENDCHAR
STARTCHAR omacron
ENCODING 333
SWIDTH 575 0
DWIDTH 17 0
BBX 16 18 0 0
BITMAP
07FE
07FE
0800
0000
0000
07F8
1FFC
3F3E
7E3F
7E3F
7E3F
FC3F
FC7F
FC7E
7C7E
7CFC
3FF8
0FE0
ENDCHAR
STARTCHAR Obreve
ENCODING 334
SWIDTH 685 0
DWIDTH 20 0
BBX 19 25 1 0
BITMAP
008180
00C380
00FF00
007C00
000000
000000
01FC00
07FF00
0FCF80
1F8FC0
3F0FC0
7F0FC0
7F0FE0
7E0FE0
FE0FE0
FE0FC0
FE1FC0
FE1FC0
FC1FC0
FC1F80
FC3F80
7C3F00
7E7E00
3FFC00
0FF000
ENDCHAR
STARTCHAR obreve
ENCODING 335
SWIDTH 575 0
DWIDTH 17 0
BBX 16 19 0 0
BITMAP
0202
030E
03FC
00F0
0000
0000
07F8
1FFC
3F3E
7E3F
7E3F
7E3F
FC3F
FC7F
FC7E
7C7E
7CFC
3FF8
0FE0
ENDCHAR
STARTCHAR Ohungarumlaut
ENCODING 336
SWIDTH 685 0
DWIDTH 20 0
BBX 22 25 1 0
BITMAP
003EFC
0078F0
00E1C0
01C380
000000
000000
01FC00
07FF00
0FCF80
1F8FC0
3F0FC0
7F0FC0
7F0FE0
7E0FE0
FE0FE0
FE0FC0
FE1FC0
FE1FC0
FC1FC0
FC1F80
FC3F80
7C3F00
7E7E00
3FFC00
0FF000
ENDCHAR
STARTCHAR ohungarumlaut
ENCODING 337
SWIDTH 575 0
DWIDTH 17 0
BBX 20 19 0 0
BITMAP
00FBF0
01E3C0
038700
070E00
000000
000000
07F800
1FFC00
3F3E00
7E3F00
7E3F00
7E3F00
FC3F00
FC7F00
FC7E00
7C7E00
7CFC00
3FF800
0FE000
ENDCHAR
STARTCHAR OE
ENCODING 338
SWIDTH 874 0
DWIDTH 25 0
BBX 26 19 1 0
BITMAP
01FFFFC0
07FFFFC0
0FCFE000
1F8FE000
3F0FE000
7F0FE000
7F0FE000
FE0FC000
FE0FFE00
FE0FFE00
FE1FC000
FC1FC000
FC1F8000
FC1F8000
FC3F8000
7C3F8000
7E7F8000
3FFFFC00
0FFFFC00
ENDCHAR
STARTCHAR oe
ENCODING 339
SWIDTH 918 0
DWIDTH 27 0
BBX 26 13 0 0
BITMAP
07F8FF00
1FFFFF80
3F3FE7C0
7E3FC7C0
7E3FC7C0
7E3FC7C0
FC3FFFC0
FC7F8000
FC7F8000
7C7F8F80
7CFF9F80
3FFFFF00
0FE3FC00
ENDCHAR
STARTCHAR Racute
ENCODING 340
SWIDTH 633 0
DWIDTH 18 0
BBX 18 25 0 0
BITMAP
000F80
001F00
001C00
003800
007000
000000
0FFE00
0FFF80
1FCFC0
1F8FC0
1F8FC0
1F8FC0
1F8FC0
3F8F80
3F1F80
3FFE00
3FFC00
3F7C00
7F7E00
7E7E00
7E7F00
7E3F00
7E3F00
FE3F80
FC1F80
ENDCHAR
STARTCHAR racute
ENCODING 341
SWIDTH 483 0
DWIDTH 14 0
BBX 15 19 0 0
BITMAP
003E
0078
00F0
00E0
01C0
0000
3E3C
3EFC
3FFC
3FFC
7E3C
7E38
7E38
7E00
7E00
FC00
FC00
FC00
FC00
ENDCHAR
STARTCHAR Rcommaaccent
ENCODING 342
SWIDTH 633 0
DWIDTH 18 0
BBX 18 28 0 -9
BITMAP
0FFE00
0FFF80
1FCFC0
1F8FC0
1F8FC0
1F8FC0
1F8FC0
3F8F80
3F1F80
3FFE00
3FFC00
3F7C00
7F7E00
7E7E00
7E7F00
7E3F00
7E3F00
FE3F80
FC1F80
000000
000000
038000
03C000
03C000
018000
038000
030000
040000
ENDCHAR
STARTCHAR rcommaaccent
ENCODING 343
SWIDTH 483 0
DWIDTH 14 0
BBX 14 22 0 -9
BITMAP
3E3C
3EFC
3FFC
3FFC
7E3C
7E38
7E38
7E00
7E00
FC00
FC00
FC00
FC00
0000
0000
7000
F000
F000
7000
6000
C000
8000
ENDCHAR
STARTCHAR Rcaron
ENCODING 344
SWIDTH 633 0
DWIDTH 18 0
BBX 18 25 0 0
BITMAP
038180
01C700
00CE00
00FC00
007800
000000
0FFE00
0FFF80
1FCFC0
1F8FC0
1F8FC0
1F8FC0
1F8FC0
3F8F80
3F1F80
3FFE00
3FFC00
3F7C00
7F7E00
7E7E00
7E7F00
7E3F00
7E3F00
FE3F80
FC1F80
ENDCHAR
STARTCHAR rcaron
ENCODING 345
SWIDTH 483 0
DWIDTH 14 0
BBX 15 19 0 0
BITMAP
0E0E
071C
0778
03F0
01E0
0000
3E3C
3EFC
3FFC
3FFC
7E3C
7E38
7E38
7E00
7E00
FC00
FC00
FC00
FC00
ENDCHAR
STARTCHAR Sacute
ENCODING 346
SWIDTH 587 0
DWIDTH 17 0
BBX 18 25 0 0
BITMAP
0007C0
000F00
000E00
001C00
003800
000000
00FE00
07FF80
0F9F80
1F1F80
3F0F80
3F1F00
3F8000
3FF000
3FFC00
1FFE00
0FFF00
01FF00
007F00
7C3F00
FC3F00
FC3E00
FE7E00
FFFC00
3FE000
ENDCHAR
STARTCHAR sacute
ENCODING 347
SWIDTH 487 0
DWIDTH 14 0
BBX 15 19 -1 0
BITMAP
003E
003C
0078
00E0
00C0
0000
07F8
1FFC
3F3C
3F3C
3F00
3FE0
1FF8
0FFC
01FC
78FC
78FC
FFF8
3FE0
ENDCHAR
STARTCHAR Scircumflex
ENCODING 348
SWIDTH 587 0
DWIDTH 17 0
BBX 18 25 0 0
BITMAP
003F00
003F00
007380
00E180
0181C0
000000
00FE00
07FF80
0F9F80
1F1F80
3F0F80
3F1F00
3F8000
3FF000
3FFC00
1FFE00
0FFF00
01FF00
007F00
7C3F00
FC3F00
FC3E00
FE7E00
FFFC00
3FE000
ENDCHAR
STARTCHAR scircumflex
ENCODING 349
SWIDTH 487 0
DWIDTH 14 0
BBX 15 19 -1 0
BITMAP
01F0
03F8
039C
070C
0C0E
0000
07F8
1FFC
3F3C
3F3C
3F00
3FE0
1FF8
0FFC
01FC
78FC
78FC
FFF8
3FE0
ENDCHAR
STARTCHAR uni015E
ENCODING 350
SWIDTH 587 0
DWIDTH 17 0
BBX 17 25 0 -6
BITMAP
00FE00
07FF80
0F9F80
1F1F80
3F0F80
3F1F00
3F8000
3FF000
3FFC00
1FFE00
0FFF00
01FF00
007F00
7C3F00
FC3F00
FC3F00
FE7E00
FFFC00
3FF000
0E0000
1C0000
3C0000
3C8000
3F8000
1E0000
ENDCHAR
STARTCHAR uni015F
ENCODING 351
SWIDTH 487 0
DWIDTH 14 0
BBX 14 19 -1 -6
BITMAP
07F8
1FFC
3F3C
3F3C
3F00
3FE0
1FF8
0FFC
01FC
78FC
78FC
7FF8
BFE0
0E00
1C00
3C00
3C80
3F80
1E00
ENDCHAR
STARTCHAR Scaron
ENCODING 352
SWIDTH 587 0
DWIDTH 17 0
BBX 18 25 0 0
BITMAP
0181C0
00C700
00EE00
007C00
007800
000000
00FE00
07FF80
0F9F80
1F1F80
3F0F80
3F1F00
3F8000
3FF000
3FFC00
1FFE00
0FFF00
01FF00
007F00
7C3F00
FC3F00
FC3E00
FE7E00
FFFC00
3FE000
ENDCHAR
STARTCHAR scaron
ENCODING 353
SWIDTH 487 0
DWIDTH 14 0
BBX 16 19 -1 0
BITMAP
0607
031C
03B8
01F0
01F0
0000
07F8
1FFC
3F3C
3F3C
3F00
3FE0
1FF8
0FFC
01FC
78FC
78FC
FFF8
3FE0
ENDCHAR
STARTCHAR uni0162
ENCODING 354
SWIDTH 555 0
DWIDTH 16 0
BBX 16 25 2 -6
BITMAP
7FFF
FFFF
07E0
0FE0
0FE0
0FC0
0FC0
0FC0
1FC0
1F80
1F80
1F80
1F80
3F80
3F00
3F00
3F00
3F00
7F00
3800
7000
F000
F400
FE00
7800
ENDCHAR
STARTCHAR uni0163
ENCODING 355
SWIDTH 393 0
DWIDTH 11 0
BBX 11 23 1 -6
BITMAP
0380
0780
0F80
3F80
FFE0
FFE0
3F00
3F00
3F00
7E00
7E00
7E00
7E00
7E00
7E00
7F80
3F00
3800
F000
E000
E400
FC00
F800
ENDCHAR
STARTCHAR Tcaron
ENCODING 356
SWIDTH 555 0
DWIDTH 16 0
BBX 16 25 2 0
BITMAP
0E06
071C
0338
03F0
01E0
0000
7FFF
FFFF
07E0
0FE0
0FE0
0FC0
0FC0
0FC0
1FC0
1F80
1F80
1F80
1F80
3F80
3F00
3F00
3F00
3F00
7F00
ENDCHAR
STARTCHAR tcaron
ENCODING 357
SWIDTH 473 0
DWIDTH 14 0
BBX 17 19 1 0
BITMAP
000700
000F00
038F80
078F00
0F8700
3F8E00
FFF800
FFE000
3F0000
3F0000
3F0000
7E0000
7E0000
7E0000
7E0000
7E0000
7E0000
7F8000
3F0000
ENDCHAR
STARTCHAR Tbar
ENCODING 358
SWIDTH 559 0
DWIDTH 16 0
BBX 16 19 2 0
BITMAP
7FFF
FFFF
07E0
0FE0
0FE0
0FC0
0FC0
0FC0
3FF0
7FF0
1F80
1F80
1F80
3F80
3F80
3F00
3F00
3F00
7F00
ENDCHAR
STARTCHAR tbar
ENCODING 359
SWIDTH 394 0
DWIDTH 11 0
BBX 12 17 0 0
BITMAP
01C0
01C0
07C0
0FC0
7FF0
7FF0
1F80
1F80
1F80
FFE0
FFE0
3F00
3F00
3F00
3F00
3FC0
1F80
ENDCHAR
STARTCHAR Utilde
ENCODING 360
SWIDTH 630 0
DWIDTH 18 0
BBX 18 25 1 0
BITMAP
00F0C0
01FF80
03FF80
021F00
000000
000000
1F81C0
3F81C0
3F81C0
3F8180
3F0180
3F0380
7F0380
7F0380
7F0300
7E0300
FE0700
FE0700
FE0700
FC0600
FC0E00
FE0C00
FFFC00
7FF800
1FC000
ENDCHAR
STARTCHAR utilde
ENCODING 361
SWIDTH 585 0
DWIDTH 17 0
BBX 17 19 0 0
BITMAP
01E180
03FF00
07FF00
043E00
000000
000000
3F1F80
3F3F00
3F3F00
7E3F00
7E3F00
7E3F00
7E7E00
7E7E00
FC7E00
FC7E00
FFFE00
7F7C00
3C7C00
ENDCHAR
STARTCHAR Umacron
ENCODING 362
SWIDTH 630 0
DWIDTH 18 0
BBX 18 24 1 0
BITMAP
01FF80
01FF80
000000
000000
000000
1F81C0
3F81C0
3F81C0
3F8180
3F0180
3F0380
7F0380
7F0380
7F0300
7E0300
FE0700
FE0700
FE0700
FC0600
FC0E00
FE0C00
FFFC00
7FF800
1FC000
ENDCHAR
STARTCHAR umacron
ENCODING 363
SWIDTH 585 0
DWIDTH 17 0
BBX 17 18 0 0
BITMAP
07FF00
07FE00
000000
000000
000000
3F1F80
3F3F00
3F3F00
7E3F00
7E3F00
7E3F00
7E7E00
7E7E00
FC7E00
FC7E00
FFFE00
7F7C00
3C7C00
ENDCHAR
STARTCHAR Ubreve
ENCODING 364
SWIDTH 630 0
DWIDTH 18 0
BBX 18 25 1 0
BITMAP
018180
00C300
00FE00
007C00
000000
000000
1F81C0
3F81C0
3F81C0
3F8180
3F0180
3F0380
7F0380
7F0380
7F0300
7E0300
FE0700
FE0700
FE0700
FC0600
FC0E00
FE0C00
FFFC00
7FF800
1FC000
ENDCHAR
STARTCHAR ubreve
ENCODING 365
SWIDTH 585 0
DWIDTH 17 0
BBX 17 19 0 0
BITMAP
030300
030E00
01FC00
00F000
000000
000000
3F1F80
3F3F00
3F3F00
7E3F00
7E3F00
7E3F00
7E7E00
7E7E00
FC7E00
FC7E00
FFFE00
7F7C00
3C7C00
ENDCHAR
STARTCHAR Uring
ENCODING 366
SWIDTH 630 0
DWIDTH 18 0
BBX 18 26 1 0
BITMAP
001C00
003E00
003600
002600
003E00
001C00
000000
1F81C0
3F81C0
3F81C0
3F8180
3F0180
3F0380
7F0380
7F0380
7F0300
7E0300
FE0700
FE0700
FE0700
FC0600
FC0E00
FE0C00
FFFC00
7FF800
1FC000
ENDCHAR
STARTCHAR uring
ENCODING 367
SWIDTH 585 0
DWIDTH 17 0
BBX 17 19 0 0
BITMAP
007000
00F800
009800
00F800
007000
000000
3F1F80
3F3F00
3F3F00
7E3F00
7E3F00
7E3F00
7E7E00
7E7E00
FC7E00
FC7E00
FFFE00
7F7C00
3C7C00
ENDCHAR
STARTCHAR Uhungarumlaut
ENCODING 368
SWIDTH 630 0
DWIDTH 18 0
BBX 21 25 1 0
BITMAP
007EF8
00F1E0
00E3C0
03C700
000000
000000
1F81C0
3F81C0
3F81C0
3F8180
3F0180
3F0380
7F0380
7F0380
7F0300
7E0300
FE0700
FE0700
FE0700
FC0600
FC0E00
FE0C00
FFFC00
7FF800
1FC000
ENDCHAR
STARTCHAR uhungarumlaut
ENCODING 369
SWIDTH 585 0
DWIDTH 17 0
BBX 20 19 0 0
BITMAP
01FBF0
01E780
038700
071E00
000000
000000
3F1F80
3F3F00
3F3F00
7E3F00
7E3F00
7E3F00
7E7E00
7E7E00
FC7E00
FC7E00
FFFE00
7F7C00
3C7C00
ENDCHAR
STARTCHAR Uogonek
ENCODING 370
SWIDTH 630 0
DWIDTH 18 0
BBX 18 25 1 -6
BITMAP
1F81C0
3F81C0
3F81C0
3F8180
3F0180
3F0380
7F0380
7F0380
7F0300
7E0300
7E0700
FE0700
FE0700
FC0600
FC0E00
FE0C00
FFFC00
7FF800
3FE000
0E0000
1C0000
3C0000
3C8000
3F8000
1E0000
ENDCHAR
STARTCHAR uogonek
ENCODING 371
SWIDTH 585 0
DWIDTH 17 0
BBX 17 19 0 -6
BITMAP
3F1F80
3F1F00
3F3F00
7E3F00
7E3F00
7E3F00
7E3E00
7E7E00
FC7E00
FC7E00
FCFE00
7FFC00
3E7C00
003800
00F000
00E000
01E400
01FC00
00F000
ENDCHAR
STARTCHAR Wcircumflex
ENCODING 372
SWIDTH 944 0
DWIDTH 27 0
BBX 27 25 2 0
BITMAP
0001E000
0003F000
00077000
000E3800
00181C00
00000000
FE0FC0E0
FE0FE1E0
FE0FE1C0
FE1FE1C0
7F1FE380
7F1FE380
7F3FE380
7F3FE700
7F3FE700
7F77EF00
7F77EE00
7FF7EE00
7FE7FC00
7FE7FC00
7FC7FC00
7FC7F800
7F87F800
7F87F800
7F87F000
ENDCHAR
STARTCHAR wcircumflex
ENCODING 373
SWIDTH 831 0
DWIDTH 24 0
BBX 24 19 1 0
BITMAP
000F80
001F80
0039C0
00E0C0
000020
000000
FC3F0F
FC3F0E
FC3F0E
FE7F9C
7E7F9C
7EFF98
7EFFB8
7EDFB0
7FDFF0
7FDFF0
3F8FE0
3F8FE0
3F0FC0
ENDCHAR
STARTCHAR Ycircumflex
ENCODING 374
SWIDTH 570 0
DWIDTH 17 0
BBX 17 25 2 0
BITMAP
007800
00FC00
01DC00
038E00
060700
000000
FE0780
7F0700
7F0E00
7F0C00
7F1C00
3FB800
3FB800
3FF000
3FE000
1FE000
1FC000
1F8000
1F8000
1F8000
3F8000
3F8000
3F0000
3F0000
3F0000
ENDCHAR
STARTCHAR ycircumflex
ENCODING 375
SWIDTH 517 0
DWIDTH 15 0
BBX 18 24 -2 -5
BITMAP
001F00
003F00
007380
01C1C0
000000
000000
1F83C0
1F8380
1FC700
0FC700
0FCE00
0FCE00
0FDC00
0FDC00
0FF800
0FF800
07F000
07F000
07E000
07E000
07C000
0F8000
FF0000
FC0000
ENDCHAR
STARTCHAR Ydieresis
ENCODING 376
SWIDTH 570 0
DWIDTH 17 0
BBX 17 25 2 0
BITMAP
038E00
078F00
07DF00
079F00
038E00
000000
FE0780
7F0700
7F0E00
7F0C00
7F1C00
3FB800
3FB800
3FF000
3FE000
1FE000
1FC000
1F8000
1F8000
1F8000
3F8000
3F8000
3F0000
3F0000
3F0000
ENDCHAR
STARTCHAR Zacute
ENCODING 377
SWIDTH 553 0
DWIDTH 16 0
BBX 18 25 -1 0
BITMAP
000F80
000F00
001E00
003C00
003000
000000
1FFFC0
1FFFC0
003FC0
007F80
007F00
00FF00
01FE00
01FC00
03FC00
07F800
07F000
0FF000
1FE000
1FC000
3FC000
7F8000
7F0000
7FFF00
FFFF00
ENDCHAR
STARTCHAR zacute
ENCODING 378
SWIDTH 478 0
DWIDTH 14 0
BBX 15 19 -1 0
BITMAP
003E
007C
0070
00E0
0000
0000
1FFE
3FFE
00FC
01F8
03F0
07F0
0FE0
1FC0
3F80
7F00
7E00
FFF8
FFF8
ENDCHAR
STARTCHAR Zdotaccent
ENCODING 379
SWIDTH 553 0
DWIDTH 16 0
BBX 18 25 -1 0
BITMAP
003C00
007E00
007E00
007E00
003C00
000000
1FFFC0
1FFFC0
003FC0
007F80
007F00
00FF00
01FE00
01FC00
03FC00
07F800
07F000
0FF000
1FE000
1FC000
3FC000
7F8000
7F8000
7FFF00
FFFF00
ENDCHAR
STARTCHAR zdotaccent
ENCODING 380
SWIDTH 478 0
DWIDTH 14 0
BBX 15 19 -1 0
BITMAP
00F0
01F8
01F8
01F8
00F0
0000
1FFE
3FFE
00FC
01F8
03F0
07F0
0FE0
1FC0
3F80
7F00
7E00
FFF8
FFF8
ENDCHAR
STARTCHAR Zcaron
ENCODING 381
SWIDTH 553 0
DWIDTH 16 0
BBX 18 25 -1 0
BITMAP
01C0C0
00E380
007700
007E00
003C00
000000
1FFFC0
1FFFC0
003FC0
007F80
007F00
00FF00
01FE00
01FC00
03FC00
07F800
07F000
0FF000
1FE000
1FC000
3FC000
7F8000
7F8000
7FFF00
FFFF00
ENDCHAR
STARTCHAR zcaron
ENCODING 382
SWIDTH 478 0
DWIDTH 14 0
BBX 16 19 -1 0
BITMAP
0707
039E
03FC
01F8
0000
0000
1FFE
3FFE
00FC
01F8
03F0
07F0
0FE0
1FC0
3F80
7F00
7E00
FFF8
FFF8
ENDCHAR
STARTCHAR Schwa
ENCODING 399
SWIDTH 646 0
DWIDTH 19 0
BBX 18 19 0 0
BITMAP
03FC00
0FFF00
1FCF80
1F8FC0
1F0FC0
1F0FC0
3F0FC0
000FC0
000FC0
7FFFC0
7FFFC0
7E1FC0
FE1FC0
FC1F80
FC3F80
7C3F00
7E7E00
3FFC00
0FE000
ENDCHAR
STARTCHAR florin
ENCODING 402
SWIDTH 507 0
DWIDTH 15 0
BBX 20 25 -3 -5
BITMAP
0007F0
001FF0
003FE0
007E00
00FC00
00FC00
00FC00
07FF80
07FF00
01F800
01F800
01F800
01F800
03F000
03F000
03F000
03F000
03E000
07E000
07E000
07E000
07C000
0F8000
FF0000
F80000
ENDCHAR
STARTCHAR uni01C4
ENCODING 452
SWIDTH 1188 0
DWIDTH 34 0
BBX 35 25 0 0
BITMAP
000001C0C0
000000E380
0000007700
0000007E00
0000003C00
0000000000
0FFE07FFE0
0FFF87FFE0
1FCFC00FE0
1F87C01FC0
1F87E03FC0
1F87E03F80
1F87E07F80
3F8FE0FF00
3F0FE0FE00
3F0FE1FE00
3F0FE3FC00
3F0FC7F800
7F1FC7F800
7E1FCFF000
7E1F9FE000
7E3F1FE000
7E7E3FC000
FFFC3FFF80
FFF03FFF80
ENDCHAR
STARTCHAR uni01C5
ENCODING 453
SWIDTH 1131 0
DWIDTH 33 0
BBX 33 19 0 0
BITMAP
0FFE038380
0FFF818E00
1FCFC1DC00
1F87C0F800
1F87E00000
1F87E00000
1F87E7FF80
3F8FEFFF80
3F0FE03F00
3F0FE07E00
3F0FE0FC00
3F0FC1FC00
7F1FC3F800
7E1FC7F000
7E1F8FE000
7E3F1FC000
7E7E1F8000
FFFC3FFE00
FFF03FFE00
ENDCHAR
STARTCHAR uni01C6
ENCODING 454
SWIDTH 1063 0
DWIDTH 31 0
BBX 31 20 0 0
BITMAP
000FC000
000FCE0E
000FC638
001F8778
001F83F0
001F83E0
001F8000
0FBF1FFE
1FFF3FFE
3FFF00FC
7E3F01F8
7E3F03F0
7E7E07F0
FC7E0FE0
FC7E1FC0
FC7E3F80
FCFE7F00
FFFC7E00
7F7CFFF8
3C7CFFF8
ENDCHAR
STARTCHAR uni01C7
ENCODING 455
SWIDTH 1069 0
DWIDTH 31 0
BBX 32 19 0 0
BITMAP
0FC0007F
0FC0007F
1FC0007E
1F80007E
1F80007E
1F8000FE
1F8000FE
3F8000FC
3F0000FC
3F0000FC
3F0001FC
3F0001F8
7F03F1F8
7E03E1F8
7E03E1F8
7E03E3F0
7E0FF3F0
FFF1FFC0
FFF07F00
ENDCHAR
STARTCHAR uni01C8
ENCODING 456
SWIDTH 763 0
DWIDTH 22 0
BBX 23 24 0 -5
BITMAP
0FC03C
0FC07C
1FC07E
1F807C
1F8038
1F8000
1F80FC
3F80FC
3F01F8
3F01F8
3F01F8
3F01F8
7F01F8
7E03F0
7E03F0
7E03F0
7E0BF0
FFF3F0
FFF7E0
0007E0
0007E0
000FC0
001F80
001E00
ENDCHAR
STARTCHAR uni01C9
ENCODING 457
SWIDTH 579 0
DWIDTH 17 0
BBX 17 25 0 -5
BITMAP
0FC000
0F8700
1F8F80
1F9F80
1F9F80
1F8F00
3F0000
3F1F80
3F3F00
3F3F00
3F3F00
7E3F00
7E3E00
7E7E00
7E7E00
7E7E00
FC7E00
FC7C00
FCFC00
FCFC00
00FC00
00F800
01F800
07E000
078000
ENDCHAR
STARTCHAR uni01CA
ENCODING 458
SWIDTH 1229 0
DWIDTH 36 0
BBX 37 19 0 0
BITMAP
0FE06003F8
0FE0E003F0
1FE0E003F0
1FF0E007F0
1FF0E007F0
1BF0C007E0
1BF1C007E0
3BF9C007E0
3BF9C00FE0
3BF9800FE0
31F9800FC0
31FB800FC0
71FF9F0FC0
71FF9F1FC0
70FF3F1F80
60FF3F1F80
60FF3F3F00
E0FF1FFE00
E07F07F800
ENDCHAR
STARTCHAR uni01CB
ENCODING 459
SWIDTH 923 0
DWIDTH 27 0
BBX 27 24 0 -5
BITMAP
0FE061C0
0FE0E3E0
1FE0E7E0
1FF0E7E0
1FF0E3C0
1BF0C000
1BF1C7E0
3BF1CFC0
3BF9CFC0
3BF98FC0
31F98FC0
31FB8F80
71FF9F80
71FF9F80
70FF1F80
60FF1F80
60FF3F00
E0FF3F00
E07F3F00
00003F00
00003E00
00007C00
0001F800
0001E000
ENDCHAR
STARTCHAR uni01CC
ENCODING 460
SWIDTH 875 0
DWIDTH 25 0
BBX 26 24 0 -5
BITMAP
00000780
00000FC0
00000FC0
00000FC0
00000780
00000000
3E3E1F80
3EFF1F80
3FFF1F80
3F3F1F00
7E3F3F00
7E3F3F00
7E3F3F00
7E7E3F00
7E7E3E00
FC7E7E00
FC7E7E00
FC7E7E00
FCFC7E00
0000FC00
0000FC00
0000F800
0003F000
0003C000
ENDCHAR
STARTCHAR Oogonek
ENCODING 490
SWIDTH 685 0
DWIDTH 20 0
BBX 19 25 1 -6
BITMAP
01FC00
07FF00
0FCF80
1F8FC0
3F0FC0
7F0FC0
7F0FE0
7E0FE0
FE0FE0
FE0FC0
FE1FC0
FE1FC0
FC1FC0
FC1F80
FC3F80
7C3F00
7E7E00
3FFC00
0FF000
070000
1E0000
1C0000
1C8000
1F8000
1F0000
ENDCHAR
STARTCHAR oogonek
ENCODING 491
SWIDTH 575 0
DWIDTH 17 0
BBX 16 19 0 -6
BITMAP
07F8
1FFC
3F3E
7E3F
7E3F
7E3F
FC3F
FC7F
FC7E
7C7E
7CFC
3FF8
1FE0
0E00
1C00
3C00
3C80
3F80
1E00
ENDCHAR
STARTCHAR uni01F1
ENCODING 497
SWIDTH 1194 0
DWIDTH 35 0
BBX 36 19 0 0
BITMAP
0FFE07FFF0
0FFF87FFE0
1FCFC00FE0
1F87C01FE0
1F87E03FC0
1F87E03F80
1F87E07F80
3F8FE0FF00
3F0FE0FE00
3F0FE1FE00
3F0FE3FC00
3F0FC3F800
7F1FC7F800
7E1FCFF000
7E1F8FE000
7E3F1FE000
7E7E3FC000
FFFC3FFF80
FFF03FFF80
ENDCHAR
STARTCHAR uni01F2
ENCODING 498
SWIDTH 1131 0
DWIDTH 33 0
BBX 33 19 0 0
BITMAP
0FFE000000
0FFF800000
1FCFC00000
1F87C00000
1F87E00000
1F87E00000
1F87E7FF80
3F8FEFFF80
3F0FE03F00
3F0FE07E00
3F0FE0FC00
3F0FC1FC00
7F1FC3F800
7E1FC7F000
7E1F8FE000
7E3F1FC000
7E7E1F8000
FFFC3FFE00
FFF03FFE00
ENDCHAR
STARTCHAR uni01F3
ENCODING 499
SWIDTH 1063 0
DWIDTH 31 0
BBX 31 20 0 0
BITMAP
000FC000
000FC000
000FC000
001F8000
001F8000
001F8000
001F8000
0FBF1FFE
1FFF3FFE
3FFF00FC
7E3F01F8
7E3F03F0
7E7E07F0
FC7E0FE0
FC7E1FC0
FC7E3F80
FCFE7F00
FFFC7E00
7F7CFFF8
3C7CFFF8
ENDCHAR
STARTCHAR Aringacute
ENCODING 506
SWIDTH 602 0
DWIDTH 17 0
BBX 18 29 -1 0
BITMAP
0003C0
000700
000700
000E00
000C00
001C00
003E00
006600
003C00
003C00
00FE00
01FE00
01FE00
01FE00
03FF00
037F00
077F00
067F00
0E7F00
0E7F00
1C3F00
1C3F00
1FFF00
3FFF00
303F80
703F80
703F80
E03F80
E03F80
ENDCHAR
STARTCHAR aringacute
ENCODING 507
SWIDTH 552 0
DWIDTH 16 0
BBX 16 25 0 0
BITMAP
001F
003E
0038
0070
0060
0000
00E0
01F0
0130
01F0
00E0
0000
0FF0
3FFC
3C7E
3C7E
007E
1FFE
7E7E
FCFC
F8FC
F8FC
FFFC
FEFC
7C78
ENDCHAR
STARTCHAR AEacute
ENCODING 508
SWIDTH 814 0
DWIDTH 24 0
BBX 27 25 -2 0
BITMAP
000007C0
00000780
00000F00
00001C00
00001800
00000000
0003FFE0
0007FFE0
000FF800
001FF000
001BF000
0033F000
0073F000
0067F000
00C7FF80
01C7FF00
0387E000
03FFE000
07FFE000
0E0FC000
1C0FC000
180FC000
381FC000
701FFF00
E01FFE00
ENDCHAR
STARTCHAR aeacute
ENCODING 509
SWIDTH 830 0
DWIDTH 24 0
BBX 24 19 0 0
BITMAP
0003E0
000780
000700
000E00
000C00
000000
0FF3F8
3FFFFE
3E7F3E
3C7F3F
007E3F
3FFE3E
7CFFFE
F8FC00
F8FC00
F8FC7C
FFFEFC
FFBFFC
7C0FF0
ENDCHAR
STARTCHAR Oslashacute
ENCODING 510
SWIDTH 685 0
DWIDTH 20 0
BBX 19 25 1 0
BITMAP
000FC0
000F00
001E00
003C00
003000
000000
01FEC0
07FF80
1FCF80
1F8FC0
3F0FC0
7F0FC0
7F1FE0
7E3FE0
FE6FE0
FEEFC0
FFDFC0
FF9FC0
FF1FC0
FE1F80
FC3F80
7C3F00
7E7E00
7FFC00
EFF000
ENDCHAR
STARTCHAR oslashacute
ENCODING 511
SWIDTH 575 0
DWIDTH 17 0
BBX 16 20 0 -1
BITMAP
003E
007C
0070
00E0
00C0
0004
07FE
1FFE
3F3E
7E3F
7E7F
7EFF
FDBF
FF7F
FF7E
7E7E
7CFC
3FF8
3FE0
2000
ENDCHAR
STARTCHAR uni0218
ENCODING 536
SWIDTH 587 0
DWIDTH 17 0
BBX 17 27 0 -8
BITMAP
00FE00
07FF80
0F9F80
1F1F80
3F0F80
3F1F00
3F8000
3FF000
3FFC00
1FFE00
0FFF00
01FF00
007F00
7C3F00
FC3F00
FC3E00
FE7E00
FFFC00
3FE000
000000
010000
078000
078000
038000
030000
070000
040000
ENDCHAR
STARTCHAR uni0219
ENCODING 537
SWIDTH 487 0
DWIDTH 14 0
BBX 14 21 -1 -8
BITMAP
07F8
1FFC
3F3C
3F3C
3F00
3FE0
1FF8
0FFC
01FC
78FC
78FC
FFF8
3FE0
0000
0200
0F00
0F00
0700
0700
0E00
0800
ENDCHAR
STARTCHAR uni021A
ENCODING 538
SWIDTH 555 0
DWIDTH 16 0
BBX 16 28 2 -9
BITMAP
7FFF
FFFF
07E0
0FE0
0FE0
0FC0
0FC0
0FC0
1FC0
1F80
1F80
1F80
1F80
3F80
3F00
3F00
3F00
3F00
7F00
0000
0000
1800
3C00
3C00
1C00
1800
7000
2000
ENDCHAR
STARTCHAR uni021B
ENCODING 539
SWIDTH 392 0
DWIDTH 11 0
BBX 11 25 1 -8
BITMAP
0380
0780
0F80
1F80
FFE0
FFE0
3F00
3F00
3F00
7E00
7E00
7E00
7E00
7E00
7E00
7F80
3F00
0000
1000
7800
7800
3800
3000
7000
4000
ENDCHAR
STARTCHAR dotlessj
ENCODING 567
SWIDTH 294 0
DWIDTH 9 0
BBX 11 18 -3 -5
BITMAP
07E0
07E0
07E0
07E0
0FC0
0FC0
0FC0
0FC0
0FC0
1F80
1F80
1F80
1F80
1F00
3F00
3E00
FC00
F000
ENDCHAR
STARTCHAR schwa
ENCODING 601
SWIDTH 547 0
DWIDTH 16 0
BBX 15 13 0 0
BITMAP
0FF0
3FF8
3E7C
7C7E
007E
007E
7FFE
F87E
F8FC
F8FC
F9F8
7FF0
3FC0
ENDCHAR
STARTCHAR apostrophe
ENCODING 700
SWIDTH 328 0
DWIDTH 10 0
BBX 5 7 4 12
BITMAP
70
F8
F8
78
70
E0
C0
ENDCHAR
STARTCHAR circumflex
ENCODING 710
SWIDTH 430 0
DWIDTH 12 0
BBX 11 5 1 14
BITMAP
1F80
1F80
39C0
70C0
C060
ENDCHAR
STARTCHAR caron
ENCODING 711
SWIDTH 430 0
DWIDTH 12 0
BBX 11 5 1 14
BITMAP
C0E0
6380
7700
3E00
3E00
ENDCHAR
STARTCHAR breve
ENCODING 728
SWIDTH 382 0
DWIDTH 11 0
BBX 9 4 1 14
BITMAP
8180
C380
FF00
7C00
ENDCHAR
STARTCHAR dotaccent
ENCODING 729
SWIDTH 257 0
DWIDTH 7 0
BBX 6 5 1 14
BITMAP
78
FC
FC
F8
70
ENDCHAR
STARTCHAR ring
ENCODING 730
SWIDTH 257 0
DWIDTH 7 0
BBX 5 6 1 13
BITMAP
70
F8
C8
D8
F8
70
ENDCHAR
STARTCHAR ogonek
ENCODING 731
SWIDTH 251 0
DWIDTH 7 0
BBX 7 7 0 -6
BITMAP
06
1C
78
70
F2
7E
78
ENDCHAR
STARTCHAR tilde
ENCODING 732
SWIDTH 462 0
DWIDTH 13 0
BBX 12 4 1 15
BITMAP
3C30
7FE0
FFE0
8780
ENDCHAR
STARTCHAR hungarumlaut
ENCODING 733
SWIDTH 592 0
DWIDTH 17 0
BBX 15 4 1 15
BITMAP
1F3E
3C78
78F0
E1C0
ENDCHAR
STARTCHAR uni03BC
ENCODING 956
SWIDTH 589 0
DWIDTH 17 0
BBX 18 18 -1 -5
BITMAP
1F8FC0
1F8FC0
1F9F80
1F9F80
3F1F80
3F1F80
3F1F80
3F3F00
3F3F00
7E3F00
7FFF00
7FBF00
7BBE00
780000
F80000
F80000
F80000
F80000
ENDCHAR
STARTCHAR Ddotbelow
ENCODING 7692
SWIDTH 662 0
DWIDTH 19 0
BBX 19 25 0 -6
BITMAP
0FFE00
0FFF80
1FCFC0
1F87C0
1F87E0
1F87E0
1F87E0
3F8FE0
3F0FE0
3F0FE0
3F0FE0
3F0FC0
7F1FC0
7E1FC0
7E1F80
7E3F00
7E7E00
FFFC00
FFF000
000000
000000
070000
0F8000
0F0000
0F0000
ENDCHAR
STARTCHAR ddotbelow
ENCODING 7693
SWIDTH 577 0
DWIDTH 17 0
BBX 18 26 0 -6
BITMAP
000FC0
000FC0
000FC0
001F80
001F80
001F80
001F80
0F9F00
1FFF00
3FFF00
7E3F00
7E3F00
7E7E00
FC7E00
FC7E00
FC7E00
FCFE00
FFFC00
7F7C00
3E7C00
000000
000000
078000
0F8000
0F8000
070000
ENDCHAR
STARTCHAR Hdotbelow
ENCODING 7716
SWIDTH 666 0
DWIDTH 19 0
BBX 20 25 0 -6
BITMAP
0FC3F0
0FC7F0
1FC7F0
1FC7E0
1F87E0
1F87E0
1F8FE0
3F8FE0
3F8FC0
3FFFC0
3FFFC0
3F1FC0
7F1F80
7E1F80
7E1F80
7E1F80
7E3F80
FE3F00
FC3F00
000000
000000
078000
078000
078000
078000
ENDCHAR
STARTCHAR hdotbelow
ENCODING 7717
SWIDTH 586 0
DWIDTH 17 0
BBX 16 26 0 -6
BITMAP
0FC0
0F80
1F80
1F80
1F80
1F80
3F00
3F1E
3F7F
3FFF
3F3F
7E3F
7E3F
7E3F
7E7E
7E7E
FC7E
FC7E
FC7E
FCFC
0000
0000
0700
0F80
0F80
0F00
ENDCHAR
STARTCHAR Ndotaccent
ENCODING 7748
SWIDTH 644 0
DWIDTH 19 0
BBX 19 25 0 0
BITMAP
001E00
003F00
003F00
003E00
001C00
000000
0FE060
0FE0E0
1FE0E0
1FF0E0
1FF0E0
1FF0C0
1BF1C0
3BF1C0
3BF9C0
3BF980
31F980
31FB80
71FF80
71FF80
70FF00
60FF00
60FF00
E0FF00
E07F00
ENDCHAR
STARTCHAR ndotaccent
ENCODING 7749
SWIDTH 586 0
DWIDTH 17 0
BBX 16 19 0 0
BITMAP
00F0
01F8
01F8
01F8
00F0
0000
3E3E
3EFF
3FFF
3F3F
7E3F
7E3F
7E3F
7E7E
7E7E
FC7E
FC7E
FC7E
FCFC
ENDCHAR
STARTCHAR Rdotbelow
ENCODING 7770
SWIDTH 633 0
DWIDTH 18 0
BBX 18 25 0 -6
BITMAP
0FFE00
0FFF80
1FCFC0
1F8FC0
1F8FC0
1F8FC0
1F8FC0
3F8F80
3F1F80
3FFE00
3FFC00
3F7C00
7F7E00
7E7E00
7E7F00
7E3F00
7E3F00
FE3F80
FC1F80
000000
000000
03C000
07C000
07C000
038000
ENDCHAR
STARTCHAR rdotbelow
ENCODING 7771
SWIDTH 483 0
DWIDTH 14 0
BBX 14 19 0 -6
BITMAP
3E3C
3EFC
3FFC
3FFC
7E3C
7E38
7E38
7E00
7E00
FC00
FC00
FC00
FC00
0000
0000
7000
F800
F000
F000
ENDCHAR
STARTCHAR Sdotbelow
ENCODING 7778
SWIDTH 587 0
DWIDTH 17 0
BBX 17 25 0 -6
BITMAP
00FE00
07FF80
0F9F80
1F1F80
3F0F80
3F1F00
3F8000
3FF000
3FFC00
1FFE00
0FFF00
01FF00
007F00
7C3F00
FC3F00
FC3E00
FE7E00
FFFC00
3FE000
000000
000000
070000
0F0000
0F0000
0F0000
ENDCHAR
STARTCHAR sdotbelow
ENCODING 7779
SWIDTH 487 0
DWIDTH 14 0
BBX 14 19 -1 -6
BITMAP
07F8
1FFC
3F3C
3F3C
3F00
3FE0
1FF8
0FFC
01FC
78FC
78FC
FFF8
3FE0
0000
0000
0E00
1F00
1F00
0E00
ENDCHAR
STARTCHAR Tdotbelow
ENCODING 7788
SWIDTH 555 0
DWIDTH 16 0
BBX 16 25 2 -6
BITMAP
7FFF
FFFF
07E0
0FE0
0FE0
0FC0
0FC0
0FC0
1FC0
1F80
1F80
1F80
1F80
3F80
3F00
3F00
3F00
3F00
7F00
0000
0000
3800
7C00
7C00
3800
ENDCHAR
STARTCHAR tdotbelow
ENCODING 7789
SWIDTH 392 0
DWIDTH 11 0
BBX 11 23 1 -6
BITMAP
0380
0780
0F80
1F80
FFE0
FFE0
3F00
3F00
3F00
7E00
7E00
7E00
7E00
7E00
7E00
7F80
3F00
0000
0000
3C00
7C00
7C00
3800
ENDCHAR
STARTCHAR Wgrave
ENCODING 7808
SWIDTH 944 0
DWIDTH 27 0
BBX 27 25 2 0
BITMAP
007C0000
001E0000
000F0000
00078000
00018000
00000000
FE0FC0E0
FE0FE1E0
FE0FE1C0
FE1FE1C0
7F1FE380
7F1FE380
7F3FE380
7F3FE700
7F3FE700
7F77EF00
7F77EE00
7FF7EE00
7FE7FC00
7FE7FC00
7FC7FC00
7FC7F800
7F87F800
7F87F800
7F87F000
ENDCHAR
STARTCHAR wgrave
ENCODING 7809
SWIDTH 831 0
DWIDTH 24 0
BBX 24 19 1 0
BITMAP
01F000
007800
003C00
001E00
000000
000000
FC3F0F
FC3F0E
FC3F0E
FE7F9C
7E7F9C
7EFF98
7EFFB8
7EDFB0
7FDFF0
7FDFF0
3F8FE0
3F8FE0
3F0FC0
ENDCHAR
STARTCHAR Wacute
ENCODING 7810
SWIDTH 944 0
DWIDTH 27 0
BBX 27 25 2 0
BITMAP
00007C00
0000F800
0000E000
0001C000
00038000
00000000
FE0FC0E0
FE0FE1E0
FE0FE1C0
FE1FE1C0
7F1FE380
7F1FE380
7F3FE380
7F3FE700
7F3FE700
7F77EF00
7F77EE00
7FF7EE00
7FE7FC00
7FE7FC00
7FC7FC00
7FC7F800
7F87F800
7F87F800
7F87F000
ENDCHAR
STARTCHAR wacute
ENCODING 7811
SWIDTH 831 0
DWIDTH 24 0
BBX 24 19 1 0
BITMAP
0003F0
0003C0
000780
000E00
000000
000000
FC3F0F
FC3F0E
FC3F0E
FE7F9C
7E7F9C
7EFF98
7EFFB8
7EDFB0
7FDFF0
7FDFF0
3F8FE0
3F8FE0
3F0FC0
ENDCHAR
STARTCHAR Wdieresis
ENCODING 7812
SWIDTH 944 0
DWIDTH 27 0
BBX 27 25 2 0
BITMAP
000E3800
001E7C00
001F7C00
001E7800
000E3800
00000000
FE0FC0E0
FE0FE1E0
FE0FE1C0
FE1FE1C0
7F1FE380
7F1FE380
7F3FE380
7F3FE700
7F3FE700
7F77EF00
7F77EE00
7FF7EE00
7FE7FC00
7FE7FC00
7FC7FC00
7FC7F800
7F87F800
7F87F800
7F87F000
ENDCHAR
STARTCHAR wdieresis
ENCODING 7813
SWIDTH 831 0
DWIDTH 24 0
BBX 24 19 1 0
BITMAP
0038E0
0079E0
0079E0
0079E0
0070C0
000000
FC3F0F
FC3F0E
FC3F0E
FE7F9C
7E7F9C
7EFF98
7EFFB8
7EDFB0
7FDFF0
7FDFF0
3F8FE0
3F8FE0
3F0FC0
ENDCHAR
STARTCHAR Zdotbelow
ENCODING 7826
SWIDTH 553 0
DWIDTH 16 0
BBX 18 25 -1 -6
BITMAP
1FFFC0
1FFFC0
003FC0
007F80
007F00
00FF00
01FE00
01FC00
03FC00
07F800
07F000
0FF000
1FE000
1FC000
3FC000
7F8000
7F8000
7FFF00
FFFF00
000000
000000
038000
07C000
07C000
038000
ENDCHAR
STARTCHAR zdotbelow
ENCODING 7827
SWIDTH 478 0
DWIDTH 14 0
BBX 15 19 -1 -6
BITMAP
1FFE
3FFE
00FC
01F8
03F0
07F0
0FE0
1FC0
3F80
7F00
7E00
FFF8
FFF8
0000
0000
0F00
0F00
1F00
0E00
ENDCHAR
STARTCHAR Edotbelow
ENCODING 7864
SWIDTH 503 0
DWIDTH 15 0
BBX 16 25 0 -6
BITMAP
0FFF
0FFF
1FC0
1F80
1F80
1F80
1F80
3F80
3FF8
3FF8
3F00
3F00
7F00
7E00
7E00
7E00
7E00
FFF8
FFF0
0000
0000
0E00
1F00
1F00
0E00
ENDCHAR
STARTCHAR edotbelow
ENCODING 7865
SWIDTH 547 0
DWIDTH 16 0
BBX 15 19 0 -6
BITMAP
03F8
1FFE
3F3E
7E3E
7E3E
7E3E
FFFE
FC00
FC00
7C7C
7CFC
3FFC
0FE0
0000
0000
0700
0F80
0F80
0F00
ENDCHAR
STARTCHAR Etilde
ENCODING 7868
SWIDTH 503 0
DWIDTH 15 0
BBX 17 25 0 0
BITMAP
01E180
03FF00
07FE00
043C00
000000
000000
0FFF00
0FFF00
1FC000
1F8000
1F8000
1F8000
1F8000
3F8000
3FF800
3FF800
3F0000
3F0000
7F0000
7E0000
7E0000
7E0000
7E0000
FFF800
FFF000
ENDCHAR
STARTCHAR etilde
ENCODING 7869
SWIDTH 547 0
DWIDTH 16 0
BBX 16 19 0 0
BITMAP
03E3
07FF
0FFE
043C
0000
0000
03F8
1FFE
3F3E
7E3E
7E3E
7E3E
FFFE
FC00
FC00
7C7C
7CFC
3FFC
0FE0
ENDCHAR
STARTCHAR Idotbelow
ENCODING 7882
SWIDTH 326 0
DWIDTH 9 0
BBX 10 25 0 -6
BITMAP
0FC0
0FC0
1FC0
1F80
1F80
1F80
1F80
3F80
3F00
3F00
3F00
3F00
7F00
7E00
7E00
7E00
7E00
FE00
FC00
0000
0000
7000
F800
F800
F000
ENDCHAR
STARTCHAR idotbelow
ENCODING 7883
SWIDTH 293 0
DWIDTH 9 0
BBX 10 25 -1 -6
BITMAP
0780
0FC0
0FC0
0FC0
0780
0000
1F80
1F80
1F80
1F80
3F00
3F00
3F00
3F00
3F00
7E00
7E00
7E00
7E00
0000
0000
7800
7800
F800
7000
ENDCHAR
STARTCHAR Odotbelow
ENCODING 7884
SWIDTH 685 0
DWIDTH 20 0
BBX 19 25 1 -6
BITMAP
01FC00
07FF00
0FCF80
1F8FC0
3F0FC0
7F0FC0
7F0FE0
7E0FE0
FE0FE0
FE0FC0
FE1FC0
FE1FC0
FC1FC0
FC1F80
FC3F80
7C3F00
7E7E00
3FFC00
0FF000
000000
000000
070000
0F8000
0F8000
070000
ENDCHAR
STARTCHAR odotbelow
ENCODING 7885
SWIDTH 575 0
DWIDTH 17 0
BBX 16 19 0 -6
BITMAP
07F8
1FFC
3F3E
7E3F
7E3F
7E3F
FC3F
FC7F
FC7E
7C7E
7CFC
3FF8
0FE0
0000
0000
0F00
0F00
1F00
0E00
ENDCHAR
STARTCHAR Udotbelow
ENCODING 7908
SWIDTH 630 0
DWIDTH 18 0
BBX 18 25 1 -6
BITMAP
1F81C0
3F81C0
3F81C0
3F8180
3F0180
3F0380
7F0380
7F0380
7F0300
7E0300
FE0700
FE0700
FE0700
FC0600
FC0E00
FE0C00
FFFC00
7FF800
1FC000
000000
000000
070000
0F8000
0F0000
0F0000
ENDCHAR
STARTCHAR udotbelow
ENCODING 7909
SWIDTH 585 0
DWIDTH 17 0
BBX 17 19 0 -6
BITMAP
3F1F80
3F3F00
3F3F00
7E3F00
7E3F00
7E3F00
7E7E00
7E7E00
FC7E00
FC7E00
FFFE00
7F7C00
3C7C00
000000
000000
070000
0F8000
0F8000
070000
ENDCHAR
STARTCHAR Ygrave
ENCODING 7922
SWIDTH 570 0
DWIDTH 17 0
BBX 17 25 2 0
BITMAP
1F0000
078000
03C000
01E000
006000
000000
FE0780
7F0700
7F0E00
7F0C00
7F1C00
3FB800
3FB800
3FF000
3FE000
1FE000
1FC000
1F8000
1F8000
1F8000
3F8000
3F8000
3F0000
3F0000
3F0000
ENDCHAR
STARTCHAR ygrave
ENCODING 7923
SWIDTH 517 0
DWIDTH 15 0
BBX 18 24 -2 -5
BITMAP
03E000
01F000
007000
003800
000400
000000
1F83C0
1F8380
1FC700
0FC700
0FCE00
0FCE00
0FDC00
0FDC00
0FF800
0FF800
07F000
07F000
07E000
07E000
07C000
0F8000
FF0000
FC0000
ENDCHAR
STARTCHAR Ytilde
ENCODING 7928
SWIDTH 570 0
DWIDTH 17 0
BBX 17 25 2 0
BITMAP
01E180
03FF00
07FF00
043E00
000000
000000
FE0780
7F0700
7F0E00
7F0C00
7F1C00
3FB800
3FB800
3FF000
3FE000
1FE000
1FC000
1F8000
1F8000
1F8000
3F8000
3F8000
3F0000
3F0000
3F0000
ENDCHAR
STARTCHAR ytilde
ENCODING 7929
SWIDTH 517 0
DWIDTH 15 0
BBX 18 24 -2 -5
BITMAP
00F0C0
01FF80
03FF80
021F00
000000
000000
1F83C0
1F8380
1FC700
0FC700
0FCE00
0FCE00
0FDC00
0FDC00
0FF800
0FF800
07F000
07F000
07E000
07E000
07C000
0F8000
FF0000
FC0000
ENDCHAR
STARTCHAR endash
ENCODING 8211
SWIDTH 600 0
DWIDTH 17 0
BBX 15 3 1 5
BITMAP
FFFE
FFFE
FFFC
ENDCHAR
STARTCHAR emdash
ENCODING 8212
SWIDTH 874 0
DWIDTH 25 0
BBX 23 3 1 5
BITMAP
FFFFFE
FFFFFE
FFFFFC
ENDCHAR
STARTCHAR quoteleft
ENCODING 8216
SWIDTH 267 0
DWIDTH 8 0
BBX 7 9 2 11
BITMAP
0E
1C
38
78
78
FC
FC
FC
78
ENDCHAR
STARTCHAR quoteright
ENCODING 8217
SWIDTH 264 0
DWIDTH 8 0
BBX 7 9 2 11
BITMAP
3C
7E
7E
7E
3C
3C
38
70
E0
ENDCHAR
STARTCHAR quotesinglbase
ENCODING 8218
SWIDTH 275 0
DWIDTH 8 0
BBX 7 9 -1 -4
BITMAP
3C
7E
7E
7E
3C
3C
38
70
E0
ENDCHAR
STARTCHAR quotedblleft
ENCODING 8220
SWIDTH 532 0
DWIDTH 15 0
BBX 14 9 2 11
BITMAP
0E0C
1C1C
3838
7870
78F0
FCF8
FCFC
FCF8
7870
ENDCHAR
STARTCHAR quotedblright
ENCODING 8221
SWIDTH 528 0
DWIDTH 15 0
BBX 14 9 2 11
BITMAP
3C38
7E7C
7E7C
7E7C
3C3C
3C3C
3838
7070
E0C0
ENDCHAR
STARTCHAR quotedblbase
ENCODING 8222
SWIDTH 539 0
DWIDTH 16 0
BBX 14 9 -1 -4
BITMAP
3C38
7E7C
7E7C
7E7C
3C3C
3C3C
3838
7070
E0C0
ENDCHAR
STARTCHAR dagger
ENCODING 8224
SWIDTH 365 0
DWIDTH 11 0
BBX 10 25 1 -5
BITMAP
0700
0700
0700
0700
0600
0E00
0E00
7FC0
FFC0
0C00
1C00
1C00
1C00
1C00
1800
3800
3800
3800
3000
7000
7000
7000
7000
6000
E000
ENDCHAR
STARTCHAR daggerdbl
ENCODING 8225
SWIDTH 374 0
DWIDTH 11 0
BBX 11 25 0 -5
BITMAP
0380
0380
0380
0380
0380
0700
0700
3FE0
3FE0
0600
0E00
0E00
0E00
0E00
0C00
1C00
FF80
FF80
1C00
1800
3800
3800
3800
3800
7000
ENDCHAR
STARTCHAR bullet
ENCODING 8226
SWIDTH 348 0
DWIDTH 10 0
BBX 7 7 2 7
BITMAP
38
7C
FE
FE
FE
7E
38
ENDCHAR
STARTCHAR ellipsis
ENCODING 8230
SWIDTH 910 0
DWIDTH 26 0
BBX 24 5 0 0
BITMAP
783C0E
FC7E1F
FC7E3F
FC7E1F
783C1E
ENDCHAR
STARTCHAR perthousand
ENCODING 8240
SWIDTH 1054 0
DWIDTH 31 0
BBX 27 19 2 0
BITMAP
3E070000
770E0000
770E0000
E71C0000
E7380000
EF380000
7E700000
00700000
00E00000
01C00000
01C00000
039F07C0
07BF8EE0
073B9EE0
0E7B9CE0
0E739CE0
1C739DE0
38371DC0
783E0F80
ENDCHAR
STARTCHAR guilsinglleft
ENCODING 8249
SWIDTH 324 0
DWIDTH 9 0
BBX 9 13 0 0
BITMAP
0380
0700
0F00
1E00
3C00
7800
F000
7800
7800
3C00
3C00
1E00
1E00
ENDCHAR
STARTCHAR guilsinglright
ENCODING 8250
SWIDTH 322 0
DWIDTH 9 0
BBX 10 13 -1 0
BITMAP
1C00
1E00
0E00
0F00
0700
0780
07C0
0780
0F00
1E00
3C00
3800
F000
ENDCHAR
STARTCHAR fraction
ENCODING 8260
SWIDTH 100 0
DWIDTH 3 0
BBX 15 19 -6 0
BITMAP
000E
001C
001C
0038
0070
0070
00E0
00E0
01C0
0380
0380
0700
0F00
0E00
1C00
1C00
3800
7800
F000
ENDCHAR
STARTCHAR zerosuperior
ENCODING 8304
SWIDTH 309 0
DWIDTH 9 0
BBX 8 7 2 12
BITMAP
3E
77
F7
E7
E7
EE
7C
ENDCHAR
STARTCHAR foursuperior
ENCODING 8308
SWIDTH 270 0
DWIDTH 8 0
BBX 8 8 1 11
BITMAP
0F
1E
2E
6E
7F
9C
1C
1C
ENDCHAR
STARTCHAR fivesuperior
ENCODING 8309
SWIDTH 262 0
DWIDTH 8 0
BBX 7 7 2 12
BITMAP
7E
7C
60
FC
0E
DC
F8
ENDCHAR
STARTCHAR sixsuperior
ENCODING 8310
SWIDTH 281 0
DWIDTH 8 0
BBX 7 7 2 12
BITMAP
3E
76
E8
FE
EE
EE
7C
ENDCHAR
STARTCHAR sevensuperior
ENCODING 8311
SWIDTH 231 0
DWIDTH 7 0
BBX 7 8 2 11
BITMAP
FE
FC
18
30
70
70
70
70
ENDCHAR
STARTCHAR eightsuperior
ENCODING 8312
SWIDTH 276 0
DWIDTH 8 0
BBX 7 7 2 12
BITMAP
7C
EE
7E
FC
EE
EE
78
ENDCHAR
STARTCHAR ninesuperior
ENCODING 8313
SWIDTH 281 0
DWIDTH 8 0
BBX 7 7 2 12
BITMAP
3C
E6
EE
FE
0E
EC
F8
ENDCHAR
STARTCHAR zeroinferior
ENCODING 8320
SWIDTH 309 0
DWIDTH 9 0
BBX 8 8 0 0
BITMAP
3C
76
E7
E7
EF
EE
EE
78
ENDCHAR
STARTCHAR oneinferior
ENCODING 8321
SWIDTH 184 0
DWIDTH 5 0
BBX 5 8 0 0
BITMAP
38
F0
F0
70
70
E0
E0
E0
ENDCHAR
STARTCHAR twoinferior
ENCODING 8322
SWIDTH 286 0
DWIDTH 8 0
BBX 8 8 -1 0
BITMAP
3E
77
67
07
0E
1C
FF
FE
ENDCHAR
STARTCHAR threeinferior
ENCODING 8323
SWIDTH 282 0
DWIDTH 8 0
BBX 8 8 -1 0
BITMAP
3E
77
07
0E
0E
6F
EE
7C
ENDCHAR
STARTCHAR fourinferior
ENCODING 8324
SWIDTH 270 0
DWIDTH 8 0
BBX 8 8 -1 0
BITMAP
0E
1E
3E
6E
4F
FE
1C
1C
ENDCHAR
STARTCHAR fiveinferior
ENCODING 8325
SWIDTH 262 0
DWIDTH 8 0
BBX 7 8 -1 0
BITMAP
3E
7E
60
7E
0E
EE
EE
7C
ENDCHAR
STARTCHAR sixinferior
ENCODING 8326
SWIDTH 281 0
DWIDTH 8 0
BBX 7 8 0 0
BITMAP
3E
6E
E0
FC
EE
CE
DC
78
ENDCHAR
STARTCHAR seveninferior
ENCODING 8327
SWIDTH 232 0
DWIDTH 7 0
BBX 7 8 0 0
BITMAP
FE
FC
18
30
70
60
E0
E0
ENDCHAR
STARTCHAR eightinferior
ENCODING 8328
SWIDTH 277 0
DWIDTH 8 0
BBX 8 8 -1 0
BITMAP
3E
77
77
3E
7E
E7
6E
7C
ENDCHAR
STARTCHAR nineinferior
ENCODING 8329
SWIDTH 281 0
DWIDTH 8 0
BBX 7 8 0 0
BITMAP
7C
EE
EE
EE
FE
0C
DC
F8
ENDCHAR
STARTCHAR Euro
ENCODING 8364
SWIDTH 589 0
DWIDTH 17 0
BBX 17 19 1 0
BITMAP
007F80
01FF00
03F000
07E000
0FC000
0FC000
7FF800
7FF800
1F8000
3F8000
3F8000
FFF000
FFF000
1F8000
1F8000
1F8000
0F8400
0FFC00
03F800
ENDCHAR
STARTCHAR trademark
ENCODING 8482
SWIDTH 704 0
DWIDTH 20 0
BBX 18 7 3 12
BITMAP
7EF3C0
FEF3C0
39F7C0
39F5C0
39FF80
717B80
737B80
ENDCHAR
STARTCHAR onethird
ENCODING 8531
SWIDTH 659 0
DWIDTH 19 0
BBX 15 19 2 0
BITMAP
181C
7818
F838
3870
7070
70E0
71C0
71C0
0380
0380
0700
0E3E
0E76
1C66
3C1C
381E
70EE
70EE
E0FC
ENDCHAR
STARTCHAR twothirds
ENCODING 8532
SWIDTH 743 0
DWIDTH 22 0
BBX 18 19 2 0
BITMAP
3E0380
770700
670E00
0F0E00
0E1C00
381800
FE3800
FE7000
007000
00E000
01C000
01CF80
039DC0
079DC0
070380
0E0380
0E1BC0
1C3B80
3C1F00
ENDCHAR
STARTCHAR oneeighth
ENCODING 8539
SWIDTH 661 0
DWIDTH 19 0
BBX 15 19 2 0
BITMAP
181C
781C
7838
3870
7070
70E0
71C0
71C0
0380
0380
0700
0E3E
0E76
1C66
3C7E
387E
70EE
70EE
E07C
ENDCHAR
STARTCHAR threeeighths
ENCODING 8540
SWIDTH 723 0
DWIDTH 21 0
BBX 17 19 2 0
BITMAP
3E0700
770E00
060E00
1C1C00
EE1800
EE3800
FC7000
007000
00E000
01C000
01C000
038F00
079D80
071B80
0E1F80
0E1F80
1C3B80
3C3B80
781F00
ENDCHAR
STARTCHAR fiveeighths
ENCODING 8541
SWIDTH 712 0
DWIDTH 21 0
BBX 17 19 2 0
BITMAP
7E0700
7E0E00
601C00
7E1C00
0E3800
EE3800
F87000
00E000
00E000
01C000
038000
038F00
071B80
073B80
0E1F00
1C3F00
1C3B80
383300
783E00
ENDCHAR
STARTCHAR seveneighths
ENCODING 8542
SWIDTH 683 0
DWIDTH 20 0
BBX 16 19 2 0
BITMAP
7E0E
7E1C
1C1C
1838
3070
7070
70E0
71C0
01C0
0380
0380
071E
0E37
0E37
1C3E
3C7F
3877
7077
F03C
ENDCHAR
STARTCHAR minus
ENCODING 8722
SWIDTH 501 0
DWIDTH 15 0
BBX 13 3 1 8
BITMAP
7FF8
7FF8
FFF0
ENDCHAR
STARTCHAR uni2215
ENCODING 8725
SWIDTH 370 0
DWIDTH 11 0
BBX 15 19 -2 0
BITMAP
000E
001C
001C
0038
0038
0070
00E0
00E0
01C0
0380
0380
0700
0F00
0E00
1C00
1C00
3800
7000
F000
ENDCHAR
STARTCHAR uni2219
ENCODING 8729
SWIDTH 273 0
DWIDTH 8 0
BBX 6 5 1 7
BITMAP
38
7C
FC
FC
78
ENDCHAR
STARTCHAR commaaccent
ENCODING 63171
SWIDTH 227 0
DWIDTH 7 0
BBX 5 6 1 -8
BITMAP
70
F8
70
70
60
C0
ENDCHAR
STARTCHAR f_f
ENCODING 64256
SWIDTH 734 0
DWIDTH 21 0
BBX 24 20 1 0
BITMAP
00007F
01FFFF
07FFFF
0FFFE0
1F87E0
1F87C0
1F8FC0
FFFFF8
FFFFF8
3F0FC0
3F1F80
3F1F80
7E1F80
7E1F80
7E1F80
7E3F00
7E3F00
FC3F00
FC3F00
FC3F00
ENDCHAR
STARTCHAR f_i
ENCODING 64257
SWIDTH 665 0
DWIDTH 19 0
BBX 18 20 1 0
BITMAP
00FE00
03FF80
07FF80
0FC100
1F8000
1F8000
1F8000
FFFFC0
FFFFC0
3F0FC0
3F1F80
3F1F80
7E1F80
7E1F80
7E1F80
7E3F00
7E3F00
FC3F00
FC3F00
FC7F00
ENDCHAR
STARTCHAR f_l
ENCODING 64258
SWIDTH 667 0
DWIDTH 19 0
BBX 20 20 1 0
BITMAP
00FE10
03FFE0
0FFFE0
0FC7E0
1F87E0
1F87E0
1F8FC0
FFEFC0
FFEFC0
3F0FC0
3F0FC0
3F1F80
7E1F80
7E1F80
7E1F80
7E3F00
7E3F00
FC3F00
FC3F00
FC3F00
ENDCHAR
STARTCHAR f_f_i
ENCODING 64259
SWIDTH 996 0
DWIDTH 29 0
BBX 28 20 1 0
BITMAP
00003F80
01FEFFE0
07FFFFC0
0FFFF0C0
1F87E000
1F87C000
1F8FC000
FFFFFFF0
FFFFFFE0
3F0FC7E0
3F1F87E0
3F1F87E0
7E1F87E0
7E1F8FC0
7E1F8FC0
7E3F0FC0
7E3F0FC0
FC3F0FC0
FC3F1F80
FC3F1F80
ENDCHAR
STARTCHAR f_f_l
ENCODING 64260
SWIDTH 998 0
DWIDTH 29 0
BBX 29 20 1 0
BITMAP
00003F00
01FEFFF8
07FFFFF8
0FFFE1F8
1F87E3F0
1F87C3F0
1F8FC3F0
FFFFFBF0
FFFFF3F0
3F0FC7E0
3F1F87E0
3F1F87E0
7E1F87E0
7E1F87C0
7E1F8FC0
7E3F0FC0
7E3F0FC0
FC3F0FC0
FC3F1F80
FC3F1F80
ENDCHAR
STARTCHAR s_t
ENCODING 64262
SWIDTH 862 0
DWIDTH 25 0
BBX 26 20 -1 0
BITMAP
0001FC00
000FFF00
001E0F80
00380780
00300780
00300F00
00383F00
07FCFFC0
1FFCFFC0
3F3C3F00
3F3C7E00
3F007E00
3FE07E00
1FF87E00
0FFC7E00
01FCFC00
78FCFC00
78FCFC00
FFF87F00
3FE03F00
ENDCHAR
STARTCHAR .notdef
ENCODING -1
SWIDTH 227 0
DWIDTH 7 0
BBX 1 1 0 0
BITMAP
00
ENDCHAR
STARTCHAR NULL
ENCODING -1
SWIDTH 191 0
DWIDTH 6 0
BBX 1 1 0 0
BITMAP
00
ENDCHAR
STARTCHAR nonmarkingreturn
ENCODING -1
SWIDTH 191 0
DWIDTH 6 0
BBX 1 1 0 0
BITMAP
00
ENDCHAR
STARTCHAR a.salt
ENCODING -1
SWIDTH 578 0
DWIDTH 17 0
BBX 17 13 0 0
BITMAP
0F9F80
1FDF00
3FFF00
7E3F00
7E3F00
7E7E00
FC7E00
FC7E00
FC7E00
FCFE00
FFFC00
7F7C00
7E7C00
ENDCHAR
STARTCHAR aacute.salt
ENCODING -1
SWIDTH 578 0
DWIDTH 17 0
BBX 17 19 0 0
BITMAP
001F80
001E00
003C00
003800
007000
000000
0F9F80
1FDF00
3FFF00
7E3F00
7E3F00
7E7E00
FC7E00
FC7E00
FC7E00
FCFE00
FFFC00
7F7C00
7E7C00
ENDCHAR
STARTCHAR abreve.salt
ENCODING -1
SWIDTH 578 0
DWIDTH 17 0
BBX 17 19 0 0
BITMAP
008100
018300
01FE00
00FC00
003000
000000
0F9F80
1FDF00
3FFF00
7E3F00
7E3F00
7E7E00
FC7E00
FC7E00
FC7E00
FCFE00
FFFC00
7F7C00
7E7C00
ENDCHAR
STARTCHAR acircumflex.salt
ENCODING -1
SWIDTH 578 0
DWIDTH 17 0
BBX 17 19 0 0
BITMAP
007C00
00FC00
01EE00
038700
070300
000000
0F9F80
1FDF00
3FFF00
7E3F00
7E3F00
7E7E00
FC7E00
FC7E00
FC7E00
FCFE00
FFFC00
7F7C00
7E7C00
ENDCHAR
STARTCHAR adieresis.salt
ENCODING -1
SWIDTH 578 0
DWIDTH 17 0
BBX 17 19 0 0
BITMAP
008200
03CF00
03CF00
03CF00
018600
000000
0F9F80
1FDF00
3FFF00
7E3F00
7E3F00
7E7E00
FC7E00
FC7E00
FC7E00
FCFE00
FFFC00
7F7C00
7E7C00
ENDCHAR
STARTCHAR agrave.salt
ENCODING -1
SWIDTH 578 0
DWIDTH 17 0
BBX 17 19 0 0
BITMAP
0F8000
03C000
01E000
00E000
007000
000000
0F9F80
1FDF00
3FFF00
7E3F00
7E3F00
7E7E00
FC7E00
FC7E00
FC7E00
FCFE00
FFFC00
7F7C00
7E7C00
ENDCHAR
STARTCHAR amacron.salt
ENCODING -1
SWIDTH 578 0
DWIDTH 17 0
BBX 17 18 0 0
BITMAP
03FF80
03FF00
03FF00
000000
000000
0F9F80
1FDF00
3FFF00
7E3F00
7E3F00
7E7E00
FC7E00
FC7E00
FC7E00
FCFE00
FFFC00
7F7C00
7E7C00
ENDCHAR
STARTCHAR aogonek.salt
ENCODING -1
SWIDTH 578 0
DWIDTH 17 0
BBX 17 19 0 -6
BITMAP
0F9F80
1FDF00
3FFF00
7E3F00
7E3F00
7E7E00
FC7E00
FC7E00
FC7E00
FCFE00
FFFC00
7F7C00
7E7C00
007800
00F000
01E000
01E400
01FC00
00F000
ENDCHAR
STARTCHAR aring.salt
ENCODING -1
SWIDTH 578 0
DWIDTH 17 0
BBX 17 19 0 0
BITMAP
003800
007C00
004C00
007C00
003800
000000
0F9F80
1FDF00
3FFF00
7E3F00
7E3F00
7E7E00
FC7E00
FC7E00
FC7E00
FCFE00
FFFC00
7F7C00
7E7C00
ENDCHAR
STARTCHAR atilde.salt
ENCODING -1
SWIDTH 578 0
DWIDTH 17 0
BBX 18 19 0 0
BITMAP
00F0C0
01FF80
03FF80
021F00
000000
000000
0F9F80
1FDF00
3FFF00
7E3F00
7E3F00
7E7E00
FC7E00
FC7E00
FC7E00
FCFE00
FFFC00
7F7C00
7E7C00
ENDCHAR
STARTCHAR c_h
ENCODING -1
SWIDTH 1094 0
DWIDTH 32 0
BBX 31 20 0 0
BITMAP
0007FF00
001FFF00
003E3F00
00383F00
00303F00
00307E00
00307E00
03F87E78
1FFE7EFC
3F3E7FFE
7E3CFE7E
7E3CFC7E
7E00FC7E
FC00FCFC
FC00FCFC
FC7DF8FC
7C79F8FC
7CF9F8F8
3FF9F9F8
1FF3F1F8
ENDCHAR
STARTCHAR c_k
ENCODING -1
SWIDTH 1106 0
DWIDTH 32 0
BBX 32 20 0 0
BITMAP
0007FF00
001FFF00
003E3F00
00383F00
00303F00
00307E00
00307E00
03F87E0F
1FFE7E1E
3F3E7E3C
7E3CFC78
7E3CFDE0
7E00FFE0
FC00FFE0
FC00FBF0
FC7DFBF8
7C79F9F8
7CF9F9FC
3FF9F8FC
1FF3F0FE
ENDCHAR
STARTCHAR c_p
ENCODING -1
SWIDTH 1092 0
DWIDTH 32 0
BBX 31 25 0 -5
BITMAP
0007FC00
001FFE00
003C7E00
00387E00
00307E00
00307E00
00307E00
03F87E78
1FFE7DFC
3F3E7FFE
7E3CFE7E
7E3CFC7E
7E00FC7E
FC00FC7E
FC00FCFC
FC7DF8FC
7C79F8FC
7CF9FFF8
3FF9FFF8
1FF1F3F0
0003F000
0003F000
0003F000
0003F000
0007E000
ENDCHAR
STARTCHAR c_t
ENCODING -1
SWIDTH 915 0
DWIDTH 27 0
BBX 27 20 0 0
BITMAP
0007FE00
001FFF80
003E1F80
003807C0
00300780
00300780
00301F80
03F8FFE0
1FFEFFE0
3F3E3F00
7E3C3F00
7E3C3F00
7E003F00
FC007E00
FC007E00
FC7C7E00
7C787E00
7CF87E00
3FF87F80
1FF03F00
ENDCHAR
STARTCHAR e_t
ENCODING -1
SWIDTH 915 0
DWIDTH 27 0
BBX 27 20 0 0
BITMAP
0007FE00
001FFF80
003E1FC0
003807C0
00300780
00300F80
00301F80
03F8FFE0
1FFEFFE0
3F3E3F00
7E3E3F00
7E3E3F00
7E3E3F00
FFFE7E00
FC007E00
FC007E00
7C7C7E00
7CFC7E00
3FFC7F80
1FF03F00
ENDCHAR
STARTCHAR f_b
ENCODING -1
SWIDTH 959 0
DWIDTH 28 0
BBX 26 20 1 0
BITMAP
01FFF000
07FFE000
0FEFE000
0F87E000
1F87E000
1F87C000
1F8FC000
FFEFCF00
FFEFDF80
3F0FFFC0
3F0FCFC0
3F1F8FC0
3E1F8FC0
7E1F8FC0
7E1F8FC0
7E3F1F80
7E3F1F80
FC3FFF80
FC3EFF00
FC3E7E00
ENDCHAR
STARTCHAR f_f_b
ENCODING -1
SWIDTH 1291 0
DWIDTH 37 0
BBX 36 20 1 0
BITMAP
00307FF800
03FFFFF800
07FFF3F800
0FC7E1F800
1F87E3F000
1F87E3F000
1F8FC3F000
FFFFFBF3C0
FFFFF3EFE0
3F0FC7FFE0
3F0F87F7F0
3F1F87E3F0
3E1F87E3F0
7E1F87C7E0
7E1F8FC7E0
7E1F0FC7E0
7E3F0FCFE0
FC3F0FFFC0
FC3F1FBFC0
FC3F1F1F00
ENDCHAR
STARTCHAR f_f_h
ENCODING -1
SWIDTH 1294 0
DWIDTH 38 0
BBX 36 20 1 0
BITMAP
00307FF800
03FFFFF800
07FFF3F800
0FC7E1F800
1F87E3F000
1F87E3F000
1F8FC3F000
FFFFFBF3C0
FFFFF3FFE0
3F0FC7FFF0
3F0F87E3F0
3F1F87E3F0
3E1F87E7E0
7E1F87E7E0
7E1F8FC7E0
7E1F0FC7E0
7E3F0FC7C0
FC3F0FCFC0
FC3F0F8FC0
FC3F1F8FC0
ENDCHAR
STARTCHAR f_f_j
ENCODING -1
SWIDTH 995 0
DWIDTH 29 0
BBX 28 25 1 -5
BITMAP
00307FC0
03FFFFE0
07FFFFC0
0FC7F040
1F87E000
1F87E000
1F8FC000
FFFFFFF0
FFFFFFE0
3F0FC7E0
3F0F87E0
3F1F87E0
7E1F87E0
7E1F8FC0
7E1F8FC0
7E3F0FC0
7E3F0FC0
FC3F0FC0
FC3F1F80
FC3F1F80
00001F80
00001F00
00003F00
00007E00
0000F000
ENDCHAR
STARTCHAR f_f_k
ENCODING -1
SWIDTH 1288 0
DWIDTH 37 0
BBX 37 20 1 0
BITMAP
00307FF800
03FFFFF800
07FFF3F800
0FC7E1F800
1F87E3F000
1F87E3F000
1F8FC3F000
FFFFFBF078
FFFFF3F0F0
3F0FC7E1E0
3F0F87E780
3F1F87EF00
3E1F87FF00
7E1F8FFF00
7E1F8FFF80
7E1F0FDF80
7E3F0FDFC0
FC3F0FCFC0
FC3F1F8FE0
FC3F1F87F0
ENDCHAR
STARTCHAR f_f_t
ENCODING -1
SWIDTH 1030 0
DWIDTH 30 0
BBX 29 20 1 0
BITMAP
0030FF00
03FFFE00
07FFF200
0FC7C070
1F8FC0F0
1F8FC1E0
1F8FC3E0
FFFFFFF8
FFFFFFF8
3F1F87E0
3F1F8FC0
3F1F8FC0
3E3F0FC0
7E3F0FC0
7E3F0FC0
7E3F1F80
7E3F1F80
FC7E1F80
FC7E1FE0
FC7E0FE0
ENDCHAR
STARTCHAR f_h
ENCODING -1
SWIDTH 961 0
DWIDTH 28 0
BBX 26 20 1 0
BITMAP
01FFF000
07FFE000
0FEFE000
0F87E000
1F87E000
1F87E000
1F8FC000
FFEFC700
FFEFDFC0
3F0FFFC0
3F0FCFC0
3F1F8FC0
3E1F8FC0
7E1F8F80
7E1F9F80
7E1F1F80
7E3F1F80
FC3F1F80
FC3F1F00
FC3F3F00
ENDCHAR
STARTCHAR f_j
ENCODING -1
SWIDTH 666 0
DWIDTH 19 0
BBX 18 25 1 -5
BITMAP
01FF00
03FF80
0FFF80
0FC100
1F8000
1F8000
1F8000
FFFFC0
FFFFC0
3F0FC0
3F0F80
3F1F80
7E1F80
7E1F80
7E1F80
7E3F00
7E3F00
FC3F00
FC3F00
FC3F00
007E00
007E00
00FC00
01F800
01E000
ENDCHAR
STARTCHAR f_k
ENCODING -1
SWIDTH 957 0
DWIDTH 28 0
BBX 28 20 1 0
BITMAP
01FFF000
07FFE000
0FEFE000
0F87E000
1F87E000
1F87E000
1F8FC000
FFEFC0F0
FFEFC3C0
3F0FC780
3F0F8F00
3F1FBE00
3E1FFC00
7E1FFE00
7E1FFE00
7E3F7F00
7E3F3F00
FC3F3F80
FC3F1F80
FC3F1FC0
ENDCHAR
STARTCHAR f_t
ENCODING -1
SWIDTH 721 0
DWIDTH 21 0
BBX 20 20 1 0
BITMAP
01FE00
07FC00
0FE200
0F80E0
1F81E0
1F83C0
1F87C0
FFFFF0
FFFFF0
3F0FC0
3F1F80
3F1F80
3E1F80
7E1F80
7E1F80
7E3F00
7E3F00
FC3F00
FC3FC0
FC1FC0
ENDCHAR
STARTCHAR s_p
ENCODING -1
SWIDTH 1065 0
DWIDTH 31 0
BBX 31 25 -1 -5
BITMAP
0007FC00
001FFE00
003C7F00
00383F00
00303F00
00303E00
00307E00
07FC7E38
1FFC7FFE
1F3C7FFE
3F3C7E7E
3F00FC7E
3FE0FC7E
3FF8FC7E
0FFCFC7E
03FCFCFC
78FDF8FC
78FDFFFC
7FF9FFF8
FFE1F9F0
0001F000
0003F000
0003F000
0003F000
0003F000
ENDCHAR
STARTCHAR t_t
ENCODING -1
SWIDTH 723 0
DWIDTH 21 0
BBX 20 17 1 0
BITMAP
0380E0
0781E0
0F83E0
1F87C0
FFFFF0
FFFFF0
3F0FC0
3F0F80
3F1F80
3E1F80
7E1F80
7E1F80
7E3F00
7E3F00
7E3F00
7F9FC0
3F1FC0
ENDCHAR
ENDFONT
